<svg width="1728" height="478" viewBox="0 0 1728 478" fill="none" xmlns="http://www.w3.org/2000/svg">
<g clip-path="url(#clip0_45_3)">
<rect width="1728" height="519" fill="url(#paint0_linear_45_3)"/>
<g filter="url(#filter0_f_45_3)">
<path d="M-0.492774 188.403C141.425 215.028 472.993 259.52 663.919 224.491C902.576 180.706 955.599 83.8885 1285.91 79.513C1616.21 75.1374 1741.45 108.192 1876.3 29.5383" stroke="white" stroke-width="0.25"/>
</g>
<g filter="url(#filter1_f_45_3)">
<path d="M11.2151 -119.878C142.439 -59.6288 453.316 63.9506 647.037 76.2734C889.188 91.6768 964.109 10.6098 1285.62 86.4748C1607.12 162.34 1720.6 224.781 1870.5 181.18" stroke="white" stroke-width="0.25"/>
</g>
<g filter="url(#filter2_f_45_3)">
<path d="M1803.15 47.1134C1665.4 90.41 1341.47 173.979 1147.73 161.881C905.561 146.759 841.411 56.9271 512.923 91.8245C184.434 126.722 64.0141 174.421 -79.2217 112.345" stroke="white" stroke-width="0.25"/>
</g>
<rect opacity="0.75" width="1728" height="519" fill="url(#paint1_linear_45_3)"/>
<path d="M702.38 141.728L693.416 167H685.712L676.748 141.728H683.3L689.564 160.808L695.864 141.728H702.38ZM714.097 167.288C712.129 167.288 710.353 166.868 708.769 166.028C707.209 165.188 705.973 163.988 705.061 162.428C704.173 160.868 703.729 159.044 703.729 156.956C703.729 154.892 704.185 153.08 705.097 151.52C706.009 149.936 707.257 148.724 708.841 147.884C710.425 147.044 712.201 146.624 714.169 146.624C716.137 146.624 717.913 147.044 719.497 147.884C721.081 148.724 722.329 149.936 723.241 151.52C724.153 153.08 724.609 154.892 724.609 156.956C724.609 159.02 724.141 160.844 723.205 162.428C722.293 163.988 721.033 165.188 719.425 166.028C717.841 166.868 716.065 167.288 714.097 167.288ZM714.097 161.96C715.273 161.96 716.269 161.528 717.085 160.664C717.925 159.8 718.345 158.564 718.345 156.956C718.345 155.348 717.937 154.112 717.121 153.248C716.329 152.384 715.345 151.952 714.169 151.952C712.969 151.952 711.973 152.384 711.181 153.248C710.389 154.088 709.993 155.324 709.993 156.956C709.993 158.564 710.377 159.8 711.145 160.664C711.937 161.528 712.921 161.96 714.097 161.96ZM726.651 156.956C726.651 154.868 727.071 153.044 727.911 151.484C728.775 149.924 729.963 148.724 731.475 147.884C733.011 147.044 734.763 146.624 736.731 146.624C739.251 146.624 741.351 147.284 743.031 148.604C744.735 149.924 745.851 151.784 746.379 154.184H739.827C739.275 152.648 738.207 151.88 736.623 151.88C735.495 151.88 734.595 152.324 733.923 153.212C733.251 154.076 732.915 155.324 732.915 156.956C732.915 158.588 733.251 159.848 733.923 160.736C734.595 161.6 735.495 162.032 736.623 162.032C738.207 162.032 739.275 161.264 739.827 159.728H746.379C745.851 162.08 744.735 163.928 743.031 165.272C741.327 166.616 739.227 167.288 736.731 167.288C734.763 167.288 733.011 166.868 731.475 166.028C729.963 165.188 728.775 163.988 727.911 162.428C727.071 160.868 726.651 159.044 726.651 156.956ZM768.607 156.632C768.607 157.208 768.571 157.808 768.499 158.432H754.567C754.663 159.68 755.059 160.64 755.755 161.312C756.475 161.96 757.351 162.284 758.383 162.284C759.919 162.284 760.987 161.636 761.587 160.34H768.139C767.803 161.66 767.191 162.848 766.303 163.904C765.439 164.96 764.347 165.788 763.027 166.388C761.707 166.988 760.231 167.288 758.599 167.288C756.631 167.288 754.879 166.868 753.343 166.028C751.807 165.188 750.607 163.988 749.743 162.428C748.879 160.868 748.447 159.044 748.447 156.956C748.447 154.868 748.867 153.044 749.707 151.484C750.571 149.924 751.771 148.724 753.307 147.884C754.843 147.044 756.607 146.624 758.599 146.624C760.543 146.624 762.271 147.032 763.783 147.848C765.295 148.664 766.471 149.828 767.311 151.34C768.175 152.852 768.607 154.616 768.607 156.632ZM762.307 155.012C762.307 153.956 761.947 153.116 761.227 152.492C760.507 151.868 759.607 151.556 758.527 151.556C757.495 151.556 756.619 151.856 755.899 152.456C755.203 153.056 754.771 153.908 754.603 155.012H762.307ZM758.527 142.448L752.947 145.4V141.152L758.527 138.308L764.107 141.152V145.4L758.527 142.448ZM778.26 156.956C778.26 154.868 778.68 153.044 779.52 151.484C780.384 149.924 781.572 148.724 783.084 147.884C784.62 147.044 786.372 146.624 788.34 146.624C790.86 146.624 792.96 147.284 794.64 148.604C796.344 149.924 797.46 151.784 797.988 154.184H791.436C790.884 152.648 789.816 151.88 788.232 151.88C787.104 151.88 786.204 152.324 785.532 153.212C784.86 154.076 784.524 155.324 784.524 156.956C784.524 158.588 784.86 159.848 785.532 160.736C786.204 161.6 787.104 162.032 788.232 162.032C789.816 162.032 790.884 161.264 791.436 159.728H797.988C797.46 162.08 796.344 163.928 794.64 165.272C792.936 166.616 790.836 167.288 788.34 167.288C786.372 167.288 784.62 166.868 783.084 166.028C781.572 165.188 780.384 163.988 779.52 162.428C778.68 160.868 778.26 159.044 778.26 156.956ZM813.629 146.696C815.933 146.696 817.781 147.464 819.173 149C820.565 150.512 821.261 152.6 821.261 155.264V167H815.141V156.092C815.141 154.748 814.793 153.704 814.097 152.96C813.401 152.216 812.465 151.844 811.289 151.844C810.113 151.844 809.177 152.216 808.481 152.96C807.785 153.704 807.437 154.748 807.437 156.092V167H801.281V140.36H807.437V149.612C808.061 148.724 808.913 148.016 809.993 147.488C811.073 146.96 812.285 146.696 813.629 146.696ZM844.475 156.632C844.475 157.208 844.439 157.808 844.367 158.432H830.435C830.531 159.68 830.927 160.64 831.623 161.312C832.343 161.96 833.219 162.284 834.251 162.284C835.787 162.284 836.855 161.636 837.455 160.34H844.007C843.671 161.66 843.059 162.848 842.171 163.904C841.307 164.96 840.215 165.788 838.895 166.388C837.575 166.988 836.099 167.288 834.467 167.288C832.499 167.288 830.747 166.868 829.211 166.028C827.675 165.188 826.475 163.988 825.611 162.428C824.747 160.868 824.315 159.044 824.315 156.956C824.315 154.868 824.735 153.044 825.575 151.484C826.439 149.924 827.639 148.724 829.175 147.884C830.711 147.044 832.475 146.624 834.467 146.624C836.411 146.624 838.139 147.032 839.651 147.848C841.163 148.664 842.339 149.828 843.179 151.34C844.043 152.852 844.475 154.616 844.475 156.632ZM838.175 155.012C838.175 153.956 837.815 153.116 837.095 152.492C836.375 151.868 835.475 151.556 834.395 151.556C833.363 151.556 832.487 151.856 831.767 152.456C831.071 153.056 830.639 153.908 830.471 155.012H838.175ZM855.354 146.624C856.77 146.624 858.006 146.912 859.062 147.488C860.142 148.064 860.97 148.82 861.546 149.756V146.912H867.702V166.964C867.702 168.812 867.33 170.48 866.586 171.968C865.866 173.48 864.75 174.68 863.238 175.568C861.75 176.456 859.89 176.9 857.658 176.9C854.682 176.9 852.27 176.192 850.422 174.776C848.574 173.384 847.518 171.488 847.254 169.088H853.338C853.53 169.856 853.986 170.456 854.706 170.888C855.426 171.344 856.314 171.572 857.37 171.572C858.642 171.572 859.65 171.2 860.394 170.456C861.162 169.736 861.546 168.572 861.546 166.964V164.12C860.946 165.056 860.118 165.824 859.062 166.424C858.006 167 856.77 167.288 855.354 167.288C853.698 167.288 852.198 166.868 850.854 166.028C849.51 165.164 848.442 163.952 847.65 162.392C846.882 160.808 846.498 158.984 846.498 156.92C846.498 154.856 846.882 153.044 847.65 151.484C848.442 149.924 849.51 148.724 850.854 147.884C852.198 147.044 853.698 146.624 855.354 146.624ZM861.546 156.956C861.546 155.42 861.114 154.208 860.25 153.32C859.41 152.432 858.378 151.988 857.154 151.988C855.93 151.988 854.886 152.432 854.022 153.32C853.182 154.184 852.762 155.384 852.762 156.92C852.762 158.456 853.182 159.68 854.022 160.592C854.886 161.48 855.93 161.924 857.154 161.924C858.378 161.924 859.41 161.48 860.25 160.592C861.114 159.704 861.546 158.492 861.546 156.956ZM881.3 167.288C879.332 167.288 877.556 166.868 875.972 166.028C874.412 165.188 873.176 163.988 872.264 162.428C871.376 160.868 870.932 159.044 870.932 156.956C870.932 154.892 871.388 153.08 872.3 151.52C873.212 149.936 874.46 148.724 876.044 147.884C877.628 147.044 879.404 146.624 881.372 146.624C883.34 146.624 885.116 147.044 886.7 147.884C888.284 148.724 889.532 149.936 890.444 151.52C891.356 153.08 891.812 154.892 891.812 156.956C891.812 159.02 891.344 160.844 890.408 162.428C889.496 163.988 888.236 165.188 886.628 166.028C885.044 166.868 883.268 167.288 881.3 167.288ZM881.3 161.96C882.476 161.96 883.472 161.528 884.288 160.664C885.128 159.8 885.548 158.564 885.548 156.956C885.548 155.348 885.14 154.112 884.324 153.248C883.532 152.384 882.548 151.952 881.372 151.952C880.172 151.952 879.176 152.384 878.384 153.248C877.592 154.088 877.196 155.324 877.196 156.956C877.196 158.564 877.58 159.8 878.348 160.664C879.14 161.528 880.124 161.96 881.3 161.96ZM914.914 146.912V167H908.758V164.264C908.134 165.152 907.282 165.872 906.202 166.424C905.146 166.952 903.97 167.216 902.674 167.216C901.138 167.216 899.782 166.88 898.606 166.208C897.43 165.512 896.518 164.516 895.87 163.22C895.222 161.924 894.898 160.4 894.898 158.648V146.912H901.018V157.82C901.018 159.164 901.366 160.208 902.062 160.952C902.758 161.696 903.694 162.068 904.87 162.068C906.07 162.068 907.018 161.696 907.714 160.952C908.41 160.208 908.758 159.164 908.758 157.82V146.912H914.914ZM925.74 156.92C925.74 154.856 926.124 153.044 926.892 151.484C927.684 149.924 928.752 148.724 930.096 147.884C931.44 147.044 932.94 146.624 934.596 146.624C936.012 146.624 937.248 146.912 938.304 147.488C939.384 148.064 940.212 148.82 940.788 149.756V146.912H946.944V167H940.788V164.156C940.188 165.092 939.348 165.848 938.268 166.424C937.212 167 935.976 167.288 934.56 167.288C932.928 167.288 931.44 166.868 930.096 166.028C928.752 165.164 927.684 163.952 926.892 162.392C926.124 160.808 925.74 158.984 925.74 156.92ZM940.788 156.956C940.788 155.42 940.356 154.208 939.492 153.32C938.652 152.432 937.62 151.988 936.396 151.988C935.172 151.988 934.128 152.432 933.264 153.32C932.424 154.184 932.004 155.384 932.004 156.92C932.004 158.456 932.424 159.68 933.264 160.592C934.128 161.48 935.172 161.924 936.396 161.924C937.62 161.924 938.652 161.48 939.492 160.592C940.356 159.704 940.788 158.492 940.788 156.956ZM960.542 167.288C958.574 167.288 956.798 166.868 955.214 166.028C953.654 165.188 952.418 163.988 951.506 162.428C950.618 160.868 950.174 159.044 950.174 156.956C950.174 154.892 950.63 153.08 951.542 151.52C952.454 149.936 953.702 148.724 955.286 147.884C956.87 147.044 958.646 146.624 960.614 146.624C962.582 146.624 964.358 147.044 965.942 147.884C967.526 148.724 968.774 149.936 969.686 151.52C970.598 153.08 971.054 154.892 971.054 156.956C971.054 159.02 970.586 160.844 969.65 162.428C968.738 163.988 967.478 165.188 965.87 166.028C964.286 166.868 962.51 167.288 960.542 167.288ZM960.542 161.96C961.718 161.96 962.714 161.528 963.53 160.664C964.37 159.8 964.79 158.564 964.79 156.956C964.79 155.348 964.382 154.112 963.566 153.248C962.774 152.384 961.79 151.952 960.614 151.952C959.414 151.952 958.418 152.384 957.626 153.248C956.834 154.088 956.438 155.324 956.438 156.956C956.438 158.564 956.822 159.8 957.59 160.664C958.382 161.528 959.366 161.96 960.542 161.96ZM992.029 152.024H988.717V167H982.561V152.024H980.329V146.912H982.561V146.336C982.561 143.864 983.269 141.992 984.685 140.72C986.101 139.424 988.177 138.776 990.913 138.776C991.369 138.776 991.705 138.788 991.921 138.812V144.032C990.745 143.96 989.917 144.128 989.437 144.536C988.957 144.944 988.717 145.676 988.717 146.732V146.912H992.029V152.024ZM998.017 144.824C996.937 144.824 996.049 144.512 995.353 143.888C994.681 143.24 994.345 142.448 994.345 141.512C994.345 140.552 994.681 139.76 995.353 139.136C996.049 138.488 996.937 138.164 998.017 138.164C999.073 138.164 999.937 138.488 1000.61 139.136C1001.31 139.76 1001.65 140.552 1001.65 141.512C1001.65 142.448 1001.31 143.24 1000.61 143.888C999.937 144.512 999.073 144.824 998.017 144.824ZM1001.08 146.912V167H994.921V146.912H1001.08ZM1031.17 146.696C1033.67 146.696 1035.65 147.452 1037.11 148.964C1038.6 150.476 1039.34 152.576 1039.34 155.264V167H1033.22V156.092C1033.22 154.796 1032.87 153.8 1032.18 153.104C1031.51 152.384 1030.57 152.024 1029.37 152.024C1028.17 152.024 1027.22 152.384 1026.53 153.104C1025.85 153.8 1025.52 154.796 1025.52 156.092V167H1019.4V156.092C1019.4 154.796 1019.05 153.8 1018.35 153.104C1017.68 152.384 1016.75 152.024 1015.55 152.024C1014.35 152.024 1013.4 152.384 1012.7 153.104C1012.03 153.8 1011.69 154.796 1011.69 156.092V167H1005.54V146.912H1011.69V149.432C1012.32 148.592 1013.13 147.932 1014.14 147.452C1015.15 146.948 1016.29 146.696 1017.56 146.696C1019.07 146.696 1020.42 147.02 1021.59 147.668C1022.79 148.316 1023.73 149.24 1024.4 150.44C1025.1 149.336 1026.05 148.436 1027.25 147.74C1028.45 147.044 1029.75 146.696 1031.17 146.696ZM1046.53 167.288C1045.45 167.288 1044.56 166.976 1043.86 166.352C1043.19 165.704 1042.86 164.912 1042.86 163.976C1042.86 163.016 1043.19 162.212 1043.86 161.564C1044.56 160.916 1045.45 160.592 1046.53 160.592C1047.58 160.592 1048.45 160.916 1049.12 161.564C1049.82 162.212 1050.16 163.016 1050.16 163.976C1050.16 164.912 1049.82 165.704 1049.12 166.352C1048.45 166.976 1047.58 167.288 1046.53 167.288Z" fill="white"/>
<path d="M640.24 233.08C639.952 232.525 639.552 232.109 639.04 231.832C638.528 231.544 637.936 231.4 637.264 231.4C636.528 231.4 635.872 231.565 635.296 231.896C634.72 232.227 634.267 232.696 633.936 233.304C633.616 233.912 633.456 234.616 633.456 235.416C633.456 236.216 633.616 236.925 633.936 237.544C634.267 238.152 634.72 238.621 635.296 238.952C635.872 239.283 636.528 239.448 637.264 239.448C638.256 239.448 639.062 239.171 639.68 238.616C640.299 238.061 640.678 237.309 640.816 236.36H636.64V234.904H642.768V236.328C642.651 237.192 642.342 237.987 641.84 238.712C641.35 239.437 640.704 240.019 639.904 240.456C639.115 240.883 638.235 241.096 637.264 241.096C636.219 241.096 635.264 240.856 634.4 240.376C633.536 239.885 632.848 239.208 632.336 238.344C631.835 237.48 631.584 236.504 631.584 235.416C631.584 234.328 631.835 233.352 632.336 232.488C632.848 231.624 633.536 230.952 634.4 230.472C635.275 229.981 636.23 229.736 637.264 229.736C638.448 229.736 639.499 230.029 640.416 230.616C641.344 231.192 642.016 232.013 642.432 233.08H640.24ZM643.959 236.552C643.959 235.667 644.141 234.883 644.503 234.2C644.877 233.517 645.378 232.989 646.007 232.616C646.647 232.232 647.351 232.04 648.119 232.04C648.813 232.04 649.415 232.179 649.927 232.456C650.45 232.723 650.866 233.059 651.175 233.464V232.184H653.015V241H651.175V239.688C650.866 240.104 650.445 240.451 649.911 240.728C649.378 241.005 648.77 241.144 648.087 241.144C647.33 241.144 646.637 240.952 646.007 240.568C645.378 240.173 644.877 239.629 644.503 238.936C644.141 238.232 643.959 237.437 643.959 236.552ZM651.175 236.584C651.175 235.976 651.047 235.448 650.791 235C650.546 234.552 650.221 234.211 649.815 233.976C649.41 233.741 648.973 233.624 648.503 233.624C648.034 233.624 647.597 233.741 647.191 233.976C646.786 234.2 646.455 234.536 646.199 234.984C645.954 235.421 645.831 235.944 645.831 236.552C645.831 237.16 645.954 237.693 646.199 238.152C646.455 238.611 646.786 238.963 647.191 239.208C647.607 239.443 648.045 239.56 648.503 239.56C648.973 239.56 649.41 239.443 649.815 239.208C650.221 238.973 650.546 238.632 650.791 238.184C651.047 237.725 651.175 237.192 651.175 236.584ZM657.235 233.496C657.544 233.069 657.966 232.723 658.499 232.456C659.043 232.179 659.646 232.04 660.307 232.04C661.086 232.04 661.79 232.227 662.419 232.6C663.048 232.973 663.544 233.507 663.907 234.2C664.27 234.883 664.451 235.667 664.451 236.552C664.451 237.437 664.27 238.232 663.907 238.936C663.544 239.629 663.043 240.173 662.403 240.568C661.774 240.952 661.075 241.144 660.307 241.144C659.624 241.144 659.016 241.011 658.483 240.744C657.96 240.477 657.544 240.136 657.235 239.72V241H655.411V229.16H657.235V233.496ZM662.595 236.552C662.595 235.944 662.467 235.421 662.211 234.984C661.966 234.536 661.635 234.2 661.219 233.976C660.814 233.741 660.376 233.624 659.907 233.624C659.448 233.624 659.011 233.741 658.595 233.976C658.19 234.211 657.859 234.552 657.603 235C657.358 235.448 657.235 235.976 657.235 236.584C657.235 237.192 657.358 237.725 657.603 238.184C657.859 238.632 658.19 238.973 658.595 239.208C659.011 239.443 659.448 239.56 659.907 239.56C660.376 239.56 660.814 239.443 661.219 239.208C661.635 238.963 661.966 238.611 662.211 238.152C662.467 237.693 662.595 237.16 662.595 236.552ZM668.079 233.464C668.345 233.016 668.697 232.669 669.135 232.424C669.583 232.168 670.111 232.04 670.719 232.04V233.928H670.255C669.54 233.928 668.996 234.109 668.623 234.472C668.26 234.835 668.079 235.464 668.079 236.36V241H666.255V232.184H668.079V233.464ZM673.323 231.016C672.993 231.016 672.715 230.904 672.491 230.68C672.267 230.456 672.155 230.179 672.155 229.848C672.155 229.517 672.267 229.24 672.491 229.016C672.715 228.792 672.993 228.68 673.323 228.68C673.643 228.68 673.915 228.792 674.139 229.016C674.363 229.24 674.475 229.517 674.475 229.848C674.475 230.179 674.363 230.456 674.139 230.68C673.915 230.904 673.643 231.016 673.323 231.016ZM674.219 232.184V241H672.395V232.184H674.219ZM684.694 236.376C684.694 236.707 684.673 237.005 684.63 237.272H677.894C677.947 237.976 678.209 238.541 678.678 238.968C679.147 239.395 679.723 239.608 680.406 239.608C681.387 239.608 682.081 239.197 682.486 238.376H684.454C684.187 239.187 683.702 239.853 682.998 240.376C682.305 240.888 681.441 241.144 680.406 241.144C679.563 241.144 678.806 240.957 678.134 240.584C677.473 240.2 676.95 239.667 676.566 238.984C676.193 238.291 676.006 237.491 676.006 236.584C676.006 235.677 676.187 234.883 676.55 234.2C676.923 233.507 677.441 232.973 678.102 232.6C678.774 232.227 679.542 232.04 680.406 232.04C681.238 232.04 681.979 232.221 682.63 232.584C683.281 232.947 683.787 233.459 684.15 234.12C684.513 234.771 684.694 235.523 684.694 236.376ZM682.79 235.8C682.779 235.128 682.539 234.589 682.07 234.184C681.601 233.779 681.019 233.576 680.326 233.576C679.697 233.576 679.158 233.779 678.71 234.184C678.262 234.579 677.995 235.117 677.91 235.8H682.79ZM688.313 229.16V241H686.489V229.16H688.313ZM706.576 229.88V241H704.752V233.384L701.36 241H700.096L696.688 233.384V241H694.864V229.88H696.832L700.736 238.6L704.624 229.88H706.576ZM712.797 241.144C711.965 241.144 711.213 240.957 710.541 240.584C709.869 240.2 709.341 239.667 708.957 238.984C708.573 238.291 708.381 237.491 708.381 236.584C708.381 235.688 708.579 234.893 708.973 234.2C709.368 233.507 709.907 232.973 710.589 232.6C711.272 232.227 712.035 232.04 712.877 232.04C713.72 232.04 714.483 232.227 715.165 232.6C715.848 232.973 716.387 233.507 716.781 234.2C717.176 234.893 717.373 235.688 717.373 236.584C717.373 237.48 717.171 238.275 716.765 238.968C716.36 239.661 715.805 240.2 715.101 240.584C714.408 240.957 713.64 241.144 712.797 241.144ZM712.797 239.56C713.267 239.56 713.704 239.448 714.109 239.224C714.525 239 714.861 238.664 715.117 238.216C715.373 237.768 715.501 237.224 715.501 236.584C715.501 235.944 715.379 235.405 715.133 234.968C714.888 234.52 714.563 234.184 714.157 233.96C713.752 233.736 713.315 233.624 712.845 233.624C712.376 233.624 711.939 233.736 711.533 233.96C711.139 234.184 710.824 234.52 710.589 234.968C710.355 235.405 710.237 235.944 710.237 236.584C710.237 237.533 710.477 238.269 710.957 238.792C711.448 239.304 712.061 239.56 712.797 239.56ZM721.001 233.464C721.267 233.016 721.619 232.669 722.057 232.424C722.505 232.168 723.033 232.04 723.641 232.04V233.928H723.177C722.462 233.928 721.918 234.109 721.545 234.472C721.182 234.835 721.001 235.464 721.001 236.36V241H719.177V232.184H721.001V233.464ZM724.709 236.552C724.709 235.667 724.891 234.883 725.253 234.2C725.627 233.517 726.128 232.989 726.757 232.616C727.397 232.232 728.101 232.04 728.869 232.04C729.563 232.04 730.165 232.179 730.677 232.456C731.2 232.723 731.616 233.059 731.925 233.464V232.184H733.765V241H731.925V239.688C731.616 240.104 731.195 240.451 730.661 240.728C730.128 241.005 729.52 241.144 728.837 241.144C728.08 241.144 727.387 240.952 726.757 240.568C726.128 240.173 725.627 239.629 725.253 238.936C724.891 238.232 724.709 237.437 724.709 236.552ZM731.925 236.584C731.925 235.976 731.797 235.448 731.541 235C731.296 234.552 730.971 234.211 730.565 233.976C730.16 233.741 729.723 233.624 729.253 233.624C728.784 233.624 728.347 233.741 727.941 233.976C727.536 234.2 727.205 234.536 726.949 234.984C726.704 235.421 726.581 235.944 726.581 236.552C726.581 237.16 726.704 237.693 726.949 238.152C727.205 238.611 727.536 238.963 727.941 239.208C728.357 239.443 728.795 239.56 729.253 239.56C729.723 239.56 730.16 239.443 730.565 239.208C730.971 238.973 731.296 238.632 731.541 238.184C731.797 237.725 731.925 237.192 731.925 236.584ZM737.089 231.016C736.758 231.016 736.481 230.904 736.257 230.68C736.033 230.456 735.921 230.179 735.921 229.848C735.921 229.517 736.033 229.24 736.257 229.016C736.481 228.792 736.758 228.68 737.089 228.68C737.409 228.68 737.681 228.792 737.905 229.016C738.129 229.24 738.241 229.517 738.241 229.848C738.241 230.179 738.129 230.456 737.905 230.68C737.681 230.904 737.409 231.016 737.089 231.016ZM737.985 232.184V241H736.161V232.184H737.985ZM743.58 241.144C742.886 241.144 742.262 241.021 741.708 240.776C741.164 240.52 740.732 240.179 740.412 239.752C740.092 239.315 739.921 238.829 739.9 238.296H741.788C741.82 238.669 741.996 238.984 742.316 239.24C742.646 239.485 743.057 239.608 743.548 239.608C744.06 239.608 744.454 239.512 744.732 239.32C745.02 239.117 745.164 238.861 745.164 238.552C745.164 238.221 745.004 237.976 744.684 237.816C744.374 237.656 743.878 237.48 743.196 237.288C742.534 237.107 741.996 236.931 741.58 236.76C741.164 236.589 740.801 236.328 740.492 235.976C740.193 235.624 740.044 235.16 740.044 234.584C740.044 234.115 740.182 233.688 740.46 233.304C740.737 232.909 741.132 232.6 741.644 232.376C742.166 232.152 742.764 232.04 743.436 232.04C744.438 232.04 745.244 232.296 745.852 232.808C746.47 233.309 746.801 233.997 746.844 234.872H745.02C744.988 234.477 744.828 234.163 744.54 233.928C744.252 233.693 743.862 233.576 743.372 233.576C742.892 233.576 742.524 233.667 742.268 233.848C742.012 234.029 741.884 234.269 741.884 234.568C741.884 234.803 741.969 235 742.14 235.16C742.31 235.32 742.518 235.448 742.764 235.544C743.009 235.629 743.372 235.741 743.852 235.88C744.492 236.051 745.014 236.227 745.42 236.408C745.836 236.579 746.193 236.835 746.492 237.176C746.79 237.517 746.945 237.971 746.956 238.536C746.956 239.037 746.817 239.485 746.54 239.88C746.262 240.275 745.868 240.584 745.356 240.808C744.854 241.032 744.262 241.144 743.58 241.144ZM750.927 238.808L748.991 243.224H747.807L748.943 238.808H750.927ZM762.453 241L759.893 236.552H758.501V241H756.677V229.88H760.517C761.37 229.88 762.09 230.029 762.677 230.328C763.274 230.627 763.717 231.027 764.005 231.528C764.303 232.029 764.453 232.589 764.453 233.208C764.453 233.933 764.239 234.595 763.813 235.192C763.397 235.779 762.751 236.179 761.877 236.392L764.629 241H762.453ZM758.501 235.096H760.517C761.199 235.096 761.711 234.925 762.053 234.584C762.405 234.243 762.581 233.784 762.581 233.208C762.581 232.632 762.41 232.184 762.069 231.864C761.727 231.533 761.21 231.368 760.517 231.368H758.501V235.096ZM766.178 236.552C766.178 235.667 766.359 234.883 766.722 234.2C767.095 233.517 767.597 232.989 768.226 232.616C768.866 232.232 769.57 232.04 770.338 232.04C771.031 232.04 771.634 232.179 772.146 232.456C772.669 232.723 773.085 233.059 773.394 233.464V232.184H775.234V241H773.394V239.688C773.085 240.104 772.663 240.451 772.13 240.728C771.597 241.005 770.989 241.144 770.306 241.144C769.549 241.144 768.855 240.952 768.226 240.568C767.597 240.173 767.095 239.629 766.722 238.936C766.359 238.232 766.178 237.437 766.178 236.552ZM773.394 236.584C773.394 235.976 773.266 235.448 773.01 235C772.765 234.552 772.439 234.211 772.034 233.976C771.629 233.741 771.191 233.624 770.722 233.624C770.253 233.624 769.815 233.741 769.41 233.976C769.005 234.2 768.674 234.536 768.418 234.984C768.173 235.421 768.05 235.944 768.05 236.552C768.05 237.16 768.173 237.693 768.418 238.152C768.674 238.611 769.005 238.963 769.41 239.208C769.826 239.443 770.263 239.56 770.722 239.56C771.191 239.56 771.629 239.443 772.034 239.208C772.439 238.973 772.765 238.632 773.01 238.184C773.266 237.725 773.394 237.192 773.394 236.584ZM779.454 233.48C779.763 233.075 780.184 232.733 780.718 232.456C781.251 232.179 781.854 232.04 782.526 232.04C783.294 232.04 783.992 232.232 784.622 232.616C785.262 232.989 785.763 233.517 786.126 234.2C786.488 234.883 786.67 235.667 786.67 236.552C786.67 237.437 786.488 238.232 786.126 238.936C785.763 239.629 785.262 240.173 784.622 240.568C783.992 240.952 783.294 241.144 782.526 241.144C781.854 241.144 781.256 241.011 780.734 240.744C780.211 240.467 779.784 240.125 779.454 239.72V245.192H777.63V232.184H779.454V233.48ZM784.814 236.552C784.814 235.944 784.686 235.421 784.43 234.984C784.184 234.536 783.854 234.2 783.438 233.976C783.032 233.741 782.595 233.624 782.126 233.624C781.667 233.624 781.23 233.741 780.814 233.976C780.408 234.211 780.078 234.552 779.822 235C779.576 235.448 779.454 235.976 779.454 236.584C779.454 237.192 779.576 237.725 779.822 238.184C780.078 238.632 780.408 238.973 780.814 239.208C781.23 239.443 781.667 239.56 782.126 239.56C782.595 239.56 783.032 239.443 783.438 239.208C783.854 238.963 784.184 238.611 784.43 238.152C784.686 237.693 784.814 237.16 784.814 236.552ZM793.033 232.04C793.705 232.04 794.303 232.184 794.825 232.472C795.359 232.76 795.775 233.187 796.073 233.752C796.383 234.317 796.537 235 796.537 235.8V241H794.729V236.072C794.729 235.283 794.532 234.68 794.137 234.264C793.743 233.837 793.204 233.624 792.521 233.624C791.839 233.624 791.295 233.837 790.889 234.264C790.495 234.68 790.297 235.283 790.297 236.072V241H788.473V229.16H790.297V233.208C790.607 232.835 790.996 232.547 791.465 232.344C791.945 232.141 792.468 232.04 793.033 232.04ZM798.256 236.552C798.256 235.667 798.437 234.883 798.8 234.2C799.173 233.517 799.675 232.989 800.304 232.616C800.944 232.232 801.648 232.04 802.416 232.04C803.109 232.04 803.712 232.179 804.224 232.456C804.747 232.723 805.163 233.059 805.472 233.464V232.184H807.312V241H805.472V239.688C805.163 240.104 804.741 240.451 804.208 240.728C803.675 241.005 803.067 241.144 802.384 241.144C801.627 241.144 800.933 240.952 800.304 240.568C799.675 240.173 799.173 239.629 798.8 238.936C798.437 238.232 798.256 237.437 798.256 236.552ZM805.472 236.584C805.472 235.976 805.344 235.448 805.088 235C804.843 234.552 804.517 234.211 804.112 233.976C803.707 233.741 803.269 233.624 802.8 233.624C802.331 233.624 801.893 233.741 801.488 233.976C801.083 234.2 800.752 234.536 800.496 234.984C800.251 235.421 800.128 235.944 800.128 236.552C800.128 237.16 800.251 237.693 800.496 238.152C800.752 238.611 801.083 238.963 801.488 239.208C801.904 239.443 802.341 239.56 802.8 239.56C803.269 239.56 803.707 239.443 804.112 239.208C804.517 238.973 804.843 238.632 805.088 238.184C805.344 237.725 805.472 237.192 805.472 236.584ZM817.788 236.376C817.788 236.707 817.766 237.005 817.724 237.272H810.988C811.041 237.976 811.302 238.541 811.772 238.968C812.241 239.395 812.817 239.608 813.5 239.608C814.481 239.608 815.174 239.197 815.58 238.376H817.548C817.281 239.187 816.796 239.853 816.092 240.376C815.398 240.888 814.534 241.144 813.5 241.144C812.657 241.144 811.9 240.957 811.228 240.584C810.566 240.2 810.044 239.667 809.66 238.984C809.286 238.291 809.1 237.491 809.1 236.584C809.1 235.677 809.281 234.883 809.644 234.2C810.017 233.507 810.534 232.973 811.196 232.6C811.868 232.227 812.636 232.04 813.5 232.04C814.332 232.04 815.073 232.221 815.724 232.584C816.374 232.947 816.881 233.459 817.244 234.12C817.606 234.771 817.788 235.523 817.788 236.376ZM815.884 235.8C815.873 235.128 815.633 234.589 815.164 234.184C814.694 233.779 814.113 233.576 813.42 233.576C812.79 233.576 812.252 233.779 811.804 234.184C811.356 234.579 811.089 235.117 811.004 235.8H815.884ZM821.407 229.16V241H819.583V229.16H821.407ZM839.67 229.88V241H837.846V233.384L834.454 241H833.19L829.782 233.384V241H827.958V229.88H829.926L833.83 238.6L837.718 229.88H839.67ZM845.891 241.144C845.059 241.144 844.307 240.957 843.635 240.584C842.963 240.2 842.435 239.667 842.051 238.984C841.667 238.291 841.475 237.491 841.475 236.584C841.475 235.688 841.673 234.893 842.067 234.2C842.462 233.507 843.001 232.973 843.683 232.6C844.366 232.227 845.129 232.04 845.971 232.04C846.814 232.04 847.577 232.227 848.259 232.6C848.942 232.973 849.481 233.507 849.875 234.2C850.27 234.893 850.467 235.688 850.467 236.584C850.467 237.48 850.265 238.275 849.859 238.968C849.454 239.661 848.899 240.2 848.195 240.584C847.502 240.957 846.734 241.144 845.891 241.144ZM845.891 239.56C846.361 239.56 846.798 239.448 847.203 239.224C847.619 239 847.955 238.664 848.211 238.216C848.467 237.768 848.595 237.224 848.595 236.584C848.595 235.944 848.473 235.405 848.227 234.968C847.982 234.52 847.657 234.184 847.251 233.96C846.846 233.736 846.409 233.624 845.939 233.624C845.47 233.624 845.033 233.736 844.627 233.96C844.233 234.184 843.918 234.52 843.683 234.968C843.449 235.405 843.331 235.944 843.331 236.584C843.331 237.533 843.571 238.269 844.051 238.792C844.542 239.304 845.155 239.56 845.891 239.56ZM854.094 233.464C854.361 233.016 854.713 232.669 855.15 232.424C855.598 232.168 856.126 232.04 856.734 232.04V233.928H856.27C855.556 233.928 855.012 234.109 854.638 234.472C854.276 234.835 854.094 235.464 854.094 236.36V241H852.27V232.184H854.094V233.464ZM857.803 236.552C857.803 235.667 857.984 234.883 858.347 234.2C858.72 233.517 859.222 232.989 859.851 232.616C860.491 232.232 861.195 232.04 861.963 232.04C862.656 232.04 863.259 232.179 863.771 232.456C864.294 232.723 864.71 233.059 865.019 233.464V232.184H866.859V241H865.019V239.688C864.71 240.104 864.288 240.451 863.755 240.728C863.222 241.005 862.614 241.144 861.931 241.144C861.174 241.144 860.48 240.952 859.851 240.568C859.222 240.173 858.72 239.629 858.347 238.936C857.984 238.232 857.803 237.437 857.803 236.552ZM865.019 236.584C865.019 235.976 864.891 235.448 864.635 235C864.39 234.552 864.064 234.211 863.659 233.976C863.254 233.741 862.816 233.624 862.347 233.624C861.878 233.624 861.44 233.741 861.035 233.976C860.63 234.2 860.299 234.536 860.043 234.984C859.798 235.421 859.675 235.944 859.675 236.552C859.675 237.16 859.798 237.693 860.043 238.152C860.299 238.611 860.63 238.963 861.035 239.208C861.451 239.443 861.888 239.56 862.347 239.56C862.816 239.56 863.254 239.443 863.659 239.208C864.064 238.973 864.39 238.632 864.635 238.184C864.891 237.725 865.019 237.192 865.019 236.584ZM870.183 231.016C869.852 231.016 869.575 230.904 869.351 230.68C869.127 230.456 869.015 230.179 869.015 229.848C869.015 229.517 869.127 229.24 869.351 229.016C869.575 228.792 869.852 228.68 870.183 228.68C870.503 228.68 870.775 228.792 870.999 229.016C871.223 229.24 871.335 229.517 871.335 229.848C871.335 230.179 871.223 230.456 870.999 230.68C870.775 230.904 870.503 231.016 870.183 231.016ZM871.079 232.184V241H869.255V232.184H871.079ZM876.673 241.144C875.98 241.144 875.356 241.021 874.801 240.776C874.257 240.52 873.825 240.179 873.505 239.752C873.185 239.315 873.015 238.829 872.993 238.296H874.881C874.913 238.669 875.089 238.984 875.409 239.24C875.74 239.485 876.151 239.608 876.641 239.608C877.153 239.608 877.548 239.512 877.825 239.32C878.113 239.117 878.257 238.861 878.257 238.552C878.257 238.221 878.097 237.976 877.777 237.816C877.468 237.656 876.972 237.48 876.289 237.288C875.628 237.107 875.089 236.931 874.673 236.76C874.257 236.589 873.895 236.328 873.585 235.976C873.287 235.624 873.137 235.16 873.137 234.584C873.137 234.115 873.276 233.688 873.553 233.304C873.831 232.909 874.225 232.6 874.737 232.376C875.26 232.152 875.857 232.04 876.529 232.04C877.532 232.04 878.337 232.296 878.945 232.808C879.564 233.309 879.895 233.997 879.937 234.872H878.113C878.081 234.477 877.921 234.163 877.633 233.928C877.345 233.693 876.956 233.576 876.465 233.576C875.985 233.576 875.617 233.667 875.361 233.848C875.105 234.029 874.977 234.269 874.977 234.568C874.977 234.803 875.063 235 875.233 235.16C875.404 235.32 875.612 235.448 875.857 235.544C876.103 235.629 876.465 235.741 876.945 235.88C877.585 236.051 878.108 236.227 878.513 236.408C878.929 236.579 879.287 236.835 879.585 237.176C879.884 237.517 880.039 237.971 880.049 238.536C880.049 239.037 879.911 239.485 879.633 239.88C879.356 240.275 878.961 240.584 878.449 240.808C877.948 241.032 877.356 241.144 876.673 241.144ZM884.02 238.808L882.084 243.224H880.9L882.036 238.808H884.02ZM898.906 241H897.082L891.594 232.696V241H889.77V229.864H891.594L897.082 238.152V229.864H898.906V241ZM900.694 236.552C900.694 235.667 900.875 234.883 901.238 234.2C901.611 233.517 902.112 232.989 902.742 232.616C903.382 232.232 904.086 232.04 904.854 232.04C905.547 232.04 906.15 232.179 906.662 232.456C907.184 232.723 907.6 233.059 907.91 233.464V232.184H909.75V241H907.91V239.688C907.6 240.104 907.179 240.451 906.646 240.728C906.112 241.005 905.504 241.144 904.822 241.144C904.064 241.144 903.371 240.952 902.742 240.568C902.112 240.173 901.611 239.629 901.238 238.936C900.875 238.232 900.694 237.437 900.694 236.552ZM907.91 236.584C907.91 235.976 907.782 235.448 907.526 235C907.28 234.552 906.955 234.211 906.55 233.976C906.144 233.741 905.707 233.624 905.238 233.624C904.768 233.624 904.331 233.741 903.926 233.976C903.52 234.2 903.19 234.536 902.934 234.984C902.688 235.421 902.566 235.944 902.566 236.552C902.566 237.16 902.688 237.693 902.934 238.152C903.19 238.611 903.52 238.963 903.926 239.208C904.342 239.443 904.779 239.56 905.238 239.56C905.707 239.56 906.144 239.443 906.55 239.208C906.955 238.973 907.28 238.632 907.526 238.184C907.782 237.725 907.91 237.192 907.91 236.584ZM911.537 236.552C911.537 235.667 911.719 234.883 912.081 234.2C912.455 233.517 912.956 232.989 913.585 232.616C914.225 232.232 914.929 232.04 915.697 232.04C916.391 232.04 916.993 232.179 917.505 232.456C918.028 232.723 918.444 233.059 918.753 233.464V232.184H920.593V241H918.753V239.688C918.444 240.104 918.023 240.451 917.489 240.728C916.956 241.005 916.348 241.144 915.665 241.144C914.908 241.144 914.215 240.952 913.585 240.568C912.956 240.173 912.455 239.629 912.081 238.936C911.719 238.232 911.537 237.437 911.537 236.552ZM918.753 236.584C918.753 235.976 918.625 235.448 918.369 235C918.124 234.552 917.799 234.211 917.393 233.976C916.988 233.741 916.551 233.624 916.081 233.624C915.612 233.624 915.175 233.741 914.769 233.976C914.364 234.2 914.033 234.536 913.777 234.984C913.532 235.421 913.409 235.944 913.409 236.552C913.409 237.16 913.532 237.693 913.777 238.152C914.033 238.611 914.364 238.963 914.769 239.208C915.185 239.443 915.623 239.56 916.081 239.56C916.551 239.56 916.988 239.443 917.393 239.208C917.799 238.973 918.124 238.632 918.369 238.184C918.625 237.725 918.753 237.192 918.753 236.584ZM924.813 233.464C925.08 233.016 925.432 232.669 925.869 232.424C926.317 232.168 926.845 232.04 927.453 232.04V233.928H926.989C926.274 233.928 925.73 234.109 925.357 234.472C924.994 234.835 924.813 235.464 924.813 236.36V241H922.989V232.184H924.813V233.464ZM928.522 236.552C928.522 235.667 928.703 234.883 929.066 234.2C929.439 233.517 929.94 232.989 930.57 232.616C931.21 232.232 931.914 232.04 932.682 232.04C933.375 232.04 933.978 232.179 934.49 232.456C935.012 232.723 935.428 233.059 935.738 233.464V232.184H937.578V241H935.738V239.688C935.428 240.104 935.007 240.451 934.474 240.728C933.94 241.005 933.332 241.144 932.65 241.144C931.892 241.144 931.199 240.952 930.57 240.568C929.94 240.173 929.439 239.629 929.066 238.936C928.703 238.232 928.522 237.437 928.522 236.552ZM935.738 236.584C935.738 235.976 935.61 235.448 935.354 235C935.108 234.552 934.783 234.211 934.378 233.976C933.972 233.741 933.535 233.624 933.066 233.624C932.596 233.624 932.159 233.741 931.754 233.976C931.348 234.2 931.018 234.536 930.762 234.984C930.516 235.421 930.394 235.944 930.394 236.552C930.394 237.16 930.516 237.693 930.762 238.152C931.018 238.611 931.348 238.963 931.754 239.208C932.17 239.443 932.607 239.56 933.066 239.56C933.535 239.56 933.972 239.443 934.378 239.208C934.783 238.973 935.108 238.632 935.354 238.184C935.61 237.725 935.738 237.192 935.738 236.584ZM950.674 229.88V231.368H945.954V234.648H949.634V236.136H945.954V241H944.13V229.88H950.674ZM951.756 236.552C951.756 235.667 951.937 234.883 952.3 234.2C952.673 233.517 953.175 232.989 953.804 232.616C954.444 232.232 955.148 232.04 955.916 232.04C956.609 232.04 957.212 232.179 957.724 232.456C958.247 232.723 958.663 233.059 958.972 233.464V232.184H960.812V241H958.972V239.688C958.663 240.104 958.241 240.451 957.708 240.728C957.175 241.005 956.567 241.144 955.884 241.144C955.127 241.144 954.433 240.952 953.804 240.568C953.175 240.173 952.673 239.629 952.3 238.936C951.937 238.232 951.756 237.437 951.756 236.552ZM958.972 236.584C958.972 235.976 958.844 235.448 958.588 235C958.343 234.552 958.017 234.211 957.612 233.976C957.207 233.741 956.769 233.624 956.3 233.624C955.831 233.624 955.393 233.741 954.988 233.976C954.583 234.2 954.252 234.536 953.996 234.984C953.751 235.421 953.628 235.944 953.628 236.552C953.628 237.16 953.751 237.693 953.996 238.152C954.252 238.611 954.583 238.963 954.988 239.208C955.404 239.443 955.841 239.56 956.3 239.56C956.769 239.56 957.207 239.443 957.612 239.208C958.017 238.973 958.343 238.632 958.588 238.184C958.844 237.725 958.972 237.192 958.972 236.584ZM967.656 232.04C968.349 232.04 968.968 232.184 969.512 232.472C970.066 232.76 970.498 233.187 970.808 233.752C971.117 234.317 971.272 235 971.272 235.8V241H969.464V236.072C969.464 235.283 969.266 234.68 968.872 234.264C968.477 233.837 967.938 233.624 967.256 233.624C966.573 233.624 966.029 233.837 965.624 234.264C965.229 234.68 965.032 235.283 965.032 236.072V241H963.208V232.184H965.032V233.192C965.33 232.829 965.709 232.547 966.168 232.344C966.637 232.141 967.133 232.04 967.656 232.04ZM981.678 236.376C981.678 236.707 981.657 237.005 981.614 237.272H974.878C974.932 237.976 975.193 238.541 975.662 238.968C976.132 239.395 976.708 239.608 977.39 239.608C978.372 239.608 979.065 239.197 979.47 238.376H981.438C981.172 239.187 980.686 239.853 979.982 240.376C979.289 240.888 978.425 241.144 977.39 241.144C976.548 241.144 975.79 240.957 975.118 240.584C974.457 240.2 973.934 239.667 973.55 238.984C973.177 238.291 972.99 237.491 972.99 236.584C972.99 235.677 973.172 234.883 973.534 234.2C973.908 233.507 974.425 232.973 975.086 232.6C975.758 232.227 976.526 232.04 977.39 232.04C978.222 232.04 978.964 232.221 979.614 232.584C980.265 232.947 980.772 233.459 981.134 234.12C981.497 234.771 981.678 235.523 981.678 236.376ZM979.774 235.8C979.764 235.128 979.524 234.589 979.054 234.184C978.585 233.779 978.004 233.576 977.31 233.576C976.681 233.576 976.142 233.779 975.694 234.184C975.246 234.579 974.98 235.117 974.894 235.8H979.774ZM986.673 241.144C985.98 241.144 985.356 241.021 984.801 240.776C984.257 240.52 983.825 240.179 983.505 239.752C983.185 239.315 983.015 238.829 982.993 238.296H984.881C984.913 238.669 985.089 238.984 985.409 239.24C985.74 239.485 986.151 239.608 986.641 239.608C987.153 239.608 987.548 239.512 987.825 239.32C988.113 239.117 988.257 238.861 988.257 238.552C988.257 238.221 988.097 237.976 987.777 237.816C987.468 237.656 986.972 237.48 986.289 237.288C985.628 237.107 985.089 236.931 984.673 236.76C984.257 236.589 983.895 236.328 983.585 235.976C983.287 235.624 983.137 235.16 983.137 234.584C983.137 234.115 983.276 233.688 983.553 233.304C983.831 232.909 984.225 232.6 984.737 232.376C985.26 232.152 985.857 232.04 986.529 232.04C987.532 232.04 988.337 232.296 988.945 232.808C989.564 233.309 989.895 233.997 989.937 234.872H988.113C988.081 234.477 987.921 234.163 987.633 233.928C987.345 233.693 986.956 233.576 986.465 233.576C985.985 233.576 985.617 233.667 985.361 233.848C985.105 234.029 984.977 234.269 984.977 234.568C984.977 234.803 985.063 235 985.233 235.16C985.404 235.32 985.612 235.448 985.857 235.544C986.103 235.629 986.465 235.741 986.945 235.88C987.585 236.051 988.108 236.227 988.513 236.408C988.929 236.579 989.287 236.835 989.585 237.176C989.884 237.517 990.039 237.971 990.049 238.536C990.049 239.037 989.911 239.485 989.633 239.88C989.356 240.275 988.961 240.584 988.449 240.808C987.948 241.032 987.356 241.144 986.673 241.144ZM994.02 238.808L992.084 243.224H990.9L992.036 238.808H994.02ZM1005.83 229.88V237.896C1005.83 238.888 1005.53 239.672 1004.92 240.248C1004.32 240.824 1003.54 241.112 1002.55 241.112C1001.57 241.112 1000.78 240.824 1000.17 240.248C999.573 239.672 999.274 238.888 999.274 237.896H1001.11C1001.12 238.387 1001.25 238.776 1001.48 239.064C1001.73 239.352 1002.08 239.496 1002.55 239.496C1003.02 239.496 1003.38 239.352 1003.63 239.064C1003.87 238.765 1003.99 238.376 1003.99 237.896V229.88H1005.83ZM1016.79 232.184V241H1014.96V239.96C1014.67 240.323 1014.29 240.611 1013.83 240.824C1013.37 241.027 1012.88 241.128 1012.35 241.128C1011.66 241.128 1011.04 240.984 1010.48 240.696C1009.94 240.408 1009.51 239.981 1009.19 239.416C1008.88 238.851 1008.72 238.168 1008.72 237.368V232.184H1010.53V237.096C1010.53 237.885 1010.73 238.493 1011.12 238.92C1011.52 239.336 1012.05 239.544 1012.74 239.544C1013.42 239.544 1013.96 239.336 1014.35 238.92C1014.76 238.493 1014.96 237.885 1014.96 237.096V232.184H1016.79ZM1021.02 229.16V241H1019.19V229.16H1021.02ZM1024.34 231.016C1024.01 231.016 1023.73 230.904 1023.51 230.68C1023.28 230.456 1023.17 230.179 1023.17 229.848C1023.17 229.517 1023.28 229.24 1023.51 229.016C1023.73 228.792 1024.01 228.68 1024.34 228.68C1024.66 228.68 1024.93 228.792 1025.15 229.016C1025.38 229.24 1025.49 229.517 1025.49 229.848C1025.49 230.179 1025.38 230.456 1025.15 230.68C1024.93 230.904 1024.66 231.016 1024.34 231.016ZM1025.23 232.184V241H1023.41V232.184H1025.23ZM1027.02 236.552C1027.02 235.667 1027.2 234.883 1027.57 234.2C1027.94 233.517 1028.44 232.989 1029.07 232.616C1029.71 232.232 1030.41 232.04 1031.18 232.04C1031.88 232.04 1032.48 232.179 1032.99 232.456C1033.51 232.723 1033.93 233.059 1034.24 233.464V232.184H1036.08V241H1034.24V239.688C1033.93 240.104 1033.51 240.451 1032.97 240.728C1032.44 241.005 1031.83 241.144 1031.15 241.144C1030.39 241.144 1029.7 240.952 1029.07 240.568C1028.44 240.173 1027.94 239.629 1027.57 238.936C1027.2 238.232 1027.02 237.437 1027.02 236.552ZM1034.24 236.584C1034.24 235.976 1034.11 235.448 1033.85 235C1033.61 234.552 1033.28 234.211 1032.88 233.976C1032.47 233.741 1032.04 233.624 1031.57 233.624C1031.1 233.624 1030.66 233.741 1030.25 233.976C1029.85 234.2 1029.52 234.536 1029.26 234.984C1029.02 235.421 1028.89 235.944 1028.89 236.552C1028.89 237.16 1029.02 237.693 1029.26 238.152C1029.52 238.611 1029.85 238.963 1030.25 239.208C1030.67 239.443 1031.11 239.56 1031.57 239.56C1032.04 239.56 1032.47 239.443 1032.88 239.208C1033.28 238.973 1033.61 238.632 1033.85 238.184C1034.11 237.725 1034.24 237.192 1034.24 236.584ZM1042.02 235.416C1042.02 234.328 1042.27 233.352 1042.77 232.488C1043.29 231.624 1043.97 230.952 1044.84 230.472C1045.71 229.981 1046.67 229.736 1047.7 229.736C1048.89 229.736 1049.94 230.029 1050.85 230.616C1051.78 231.192 1052.45 232.013 1052.87 233.08H1050.68C1050.39 232.493 1049.99 232.056 1049.48 231.768C1048.97 231.48 1048.37 231.336 1047.7 231.336C1046.97 231.336 1046.31 231.501 1045.73 231.832C1045.16 232.163 1044.7 232.637 1044.37 233.256C1044.05 233.875 1043.89 234.595 1043.89 235.416C1043.89 236.237 1044.05 236.957 1044.37 237.576C1044.7 238.195 1045.16 238.675 1045.73 239.016C1046.31 239.347 1046.97 239.512 1047.7 239.512C1048.37 239.512 1048.97 239.368 1049.48 239.08C1049.99 238.792 1050.39 238.355 1050.68 237.768H1052.87C1052.45 238.835 1051.78 239.656 1050.85 240.232C1049.94 240.808 1048.89 241.096 1047.7 241.096C1046.66 241.096 1045.7 240.856 1044.84 240.376C1043.97 239.885 1043.29 239.208 1042.77 238.344C1042.27 237.48 1042.02 236.504 1042.02 235.416ZM1058.83 241.144C1058 241.144 1057.24 240.957 1056.57 240.584C1055.9 240.2 1055.37 239.667 1054.99 238.984C1054.6 238.291 1054.41 237.491 1054.41 236.584C1054.41 235.688 1054.61 234.893 1055 234.2C1055.4 233.507 1055.94 232.973 1056.62 232.6C1057.3 232.227 1058.07 232.04 1058.91 232.04C1059.75 232.04 1060.51 232.227 1061.2 232.6C1061.88 232.973 1062.42 233.507 1062.81 234.2C1063.21 234.893 1063.4 235.688 1063.4 236.584C1063.4 237.48 1063.2 238.275 1062.8 238.968C1062.39 239.661 1061.84 240.2 1061.13 240.584C1060.44 240.957 1059.67 241.144 1058.83 241.144ZM1058.83 239.56C1059.3 239.56 1059.74 239.448 1060.14 239.224C1060.56 239 1060.89 238.664 1061.15 238.216C1061.4 237.768 1061.53 237.224 1061.53 236.584C1061.53 235.944 1061.41 235.405 1061.16 234.968C1060.92 234.52 1060.59 234.184 1060.19 233.96C1059.78 233.736 1059.35 233.624 1058.88 233.624C1058.41 233.624 1057.97 233.736 1057.56 233.96C1057.17 234.184 1056.86 234.52 1056.62 234.968C1056.39 235.405 1056.27 235.944 1056.27 236.584C1056.27 237.533 1056.51 238.269 1056.99 238.792C1057.48 239.304 1058.09 239.56 1058.83 239.56ZM1067.03 233.464C1067.3 233.016 1067.65 232.669 1068.09 232.424C1068.54 232.168 1069.06 232.04 1069.67 232.04V233.928H1069.21C1068.49 233.928 1067.95 234.109 1067.58 234.472C1067.21 234.835 1067.03 235.464 1067.03 236.36V241H1065.21V232.184H1067.03V233.464ZM1073.17 233.464C1073.44 233.016 1073.79 232.669 1074.23 232.424C1074.68 232.168 1075.2 232.04 1075.81 232.04V233.928H1075.35C1074.63 233.928 1074.09 234.109 1073.72 234.472C1073.35 234.835 1073.17 235.464 1073.17 236.36V241H1071.35V232.184H1073.17V233.464ZM1085.57 236.376C1085.57 236.707 1085.55 237.005 1085.51 237.272H1078.77C1078.82 237.976 1079.08 238.541 1079.55 238.968C1080.02 239.395 1080.6 239.608 1081.28 239.608C1082.26 239.608 1082.96 239.197 1083.36 238.376H1085.33C1085.06 239.187 1084.58 239.853 1083.87 240.376C1083.18 240.888 1082.32 241.144 1081.28 241.144C1080.44 241.144 1079.68 240.957 1079.01 240.584C1078.35 240.2 1077.83 239.667 1077.44 238.984C1077.07 238.291 1076.88 237.491 1076.88 236.584C1076.88 235.677 1077.06 234.883 1077.43 234.2C1077.8 233.507 1078.32 232.973 1078.98 232.6C1079.65 232.227 1080.42 232.04 1081.28 232.04C1082.11 232.04 1082.85 232.221 1083.51 232.584C1084.16 232.947 1084.66 233.459 1085.03 234.12C1085.39 234.771 1085.57 235.523 1085.57 236.376ZM1083.67 235.8C1083.65 235.128 1083.41 234.589 1082.95 234.184C1082.48 233.779 1081.89 233.576 1081.2 233.576C1080.57 233.576 1080.03 233.779 1079.59 234.184C1079.14 234.579 1078.87 235.117 1078.79 235.8H1083.67ZM1086.76 236.552C1086.76 235.667 1086.94 234.883 1087.3 234.2C1087.67 233.517 1088.17 232.989 1088.8 232.616C1089.44 232.232 1090.15 232.04 1090.92 232.04C1091.61 232.04 1092.21 232.179 1092.72 232.456C1093.25 232.723 1093.66 233.059 1093.97 233.464V232.184H1095.81V241H1093.97V239.688C1093.66 240.104 1093.24 240.451 1092.71 240.728C1092.17 241.005 1091.57 241.144 1090.88 241.144C1090.13 241.144 1089.43 240.952 1088.8 240.568C1088.17 240.173 1087.67 239.629 1087.3 238.936C1086.94 238.232 1086.76 237.437 1086.76 236.552ZM1093.97 236.584C1093.97 235.976 1093.84 235.448 1093.59 235C1093.34 234.552 1093.02 234.211 1092.61 233.976C1092.21 233.741 1091.77 233.624 1091.3 233.624C1090.83 233.624 1090.39 233.741 1089.99 233.976C1089.58 234.2 1089.25 234.536 1089 234.984C1088.75 235.421 1088.63 235.944 1088.63 236.552C1088.63 237.16 1088.75 237.693 1089 238.152C1089.25 238.611 1089.58 238.963 1089.99 239.208C1090.4 239.443 1090.84 239.56 1091.3 239.56C1091.77 239.56 1092.21 239.443 1092.61 239.208C1093.02 238.973 1093.34 238.632 1093.59 238.184C1093.84 237.725 1093.97 237.192 1093.97 236.584ZM846.429 286.52C847.453 285.635 848.258 284.909 848.845 284.344C849.442 283.768 849.938 283.171 850.333 282.552C850.728 281.933 850.925 281.315 850.925 280.696C850.925 280.056 850.77 279.555 850.461 279.192C850.162 278.829 849.688 278.648 849.037 278.648C848.408 278.648 847.917 278.851 847.565 279.256C847.224 279.651 847.042 280.184 847.021 280.856H845.261C845.293 279.64 845.656 278.712 846.349 278.072C847.053 277.421 847.944 277.096 849.021 277.096C850.184 277.096 851.09 277.416 851.741 278.056C852.402 278.696 852.733 279.549 852.733 280.616C852.733 281.384 852.536 282.125 852.141 282.84C851.757 283.544 851.293 284.179 850.749 284.744C850.216 285.299 849.533 285.944 848.701 286.68L847.981 287.32H853.053V288.84H845.277V287.512L846.429 286.52ZM854.655 283.016C854.655 281.171 854.965 279.731 855.583 278.696C856.213 277.651 857.29 277.128 858.815 277.128C860.341 277.128 861.413 277.651 862.031 278.696C862.661 279.731 862.975 281.171 862.975 283.016C862.975 284.883 862.661 286.344 862.031 287.4C861.413 288.445 860.341 288.968 858.815 288.968C857.29 288.968 856.213 288.445 855.583 287.4C854.965 286.344 854.655 284.883 854.655 283.016ZM861.183 283.016C861.183 282.152 861.125 281.421 861.007 280.824C860.901 280.227 860.677 279.741 860.335 279.368C859.994 278.984 859.487 278.792 858.815 278.792C858.143 278.792 857.637 278.984 857.295 279.368C856.954 279.741 856.725 280.227 856.607 280.824C856.501 281.421 856.447 282.152 856.447 283.016C856.447 283.912 856.501 284.664 856.607 285.272C856.714 285.88 856.938 286.371 857.279 286.744C857.631 287.117 858.143 287.304 858.815 287.304C859.487 287.304 859.994 287.117 860.335 286.744C860.687 286.371 860.917 285.88 861.023 285.272C861.13 284.664 861.183 283.912 861.183 283.016ZM865.913 286.52C866.937 285.635 867.743 284.909 868.329 284.344C868.927 283.768 869.423 283.171 869.817 282.552C870.212 281.933 870.409 281.315 870.409 280.696C870.409 280.056 870.255 279.555 869.945 279.192C869.647 278.829 869.172 278.648 868.521 278.648C867.892 278.648 867.401 278.851 867.049 279.256C866.708 279.651 866.527 280.184 866.505 280.856H864.745C864.777 279.64 865.14 278.712 865.833 278.072C866.537 277.421 867.428 277.096 868.505 277.096C869.668 277.096 870.575 277.416 871.225 278.056C871.887 278.696 872.217 279.549 872.217 280.616C872.217 281.384 872.02 282.125 871.625 282.84C871.241 283.544 870.777 284.179 870.233 284.744C869.7 285.299 869.017 285.944 868.185 286.68L867.465 287.32H872.537V288.84H864.761V287.512L865.913 286.52ZM873.916 286.568V285.192L879.292 277.48H881.5V284.984H882.988V286.568H881.5V289H879.708V286.568H873.916ZM879.788 279.336L876.012 284.984H879.788V279.336Z" fill="white"/>
</g>
<defs>
<filter id="filter0_f_45_3" x="-11.5158" y="18.4303" width="1898.87" height="230.094" filterUnits="userSpaceOnUse" color-interpolation-filters="sRGB">
<feFlood flood-opacity="0" result="BackgroundImageFix"/>
<feBlend mode="normal" in="SourceGraphic" in2="BackgroundImageFix" result="shape"/>
<feGaussianBlur stdDeviation="5.5" result="effect1_foregroundBlur_45_3"/>
</filter>
<filter id="filter1_f_45_3" x="3.1629" y="-127.992" width="1875.37" height="331.68" filterUnits="userSpaceOnUse" color-interpolation-filters="sRGB">
<feFlood flood-opacity="0" result="BackgroundImageFix"/>
<feBlend mode="normal" in="SourceGraphic" in2="BackgroundImageFix" result="shape"/>
<feGaussianBlur stdDeviation="4" result="effect1_foregroundBlur_45_3"/>
</filter>
<filter id="filter2_f_45_3" x="-98.2713" y="27.9941" width="1920.46" height="154.196" filterUnits="userSpaceOnUse" color-interpolation-filters="sRGB">
<feFlood flood-opacity="0" result="BackgroundImageFix"/>
<feBlend mode="normal" in="SourceGraphic" in2="BackgroundImageFix" result="shape"/>
<feGaussianBlur stdDeviation="9.5" result="effect1_foregroundBlur_45_3"/>
</filter>
<linearGradient id="paint0_linear_45_3" x1="722" y1="-62.2802" x2="2849.9" y2="875.826" gradientUnits="userSpaceOnUse">
<stop stop-color="#0149AD"/>
<stop offset="1" stop-color="#40B4FD"/>
</linearGradient>
<linearGradient id="paint1_linear_45_3" x1="658.5" y1="603.424" x2="1494.73" y2="833.801" gradientUnits="userSpaceOnUse">
<stop stop-color="#002F52"/>
<stop offset="1" stop-color="#326589"/>
</linearGradient>
<clipPath id="clip0_45_3">
<rect width="1728" height="519" fill="white"/>
</clipPath>
</defs>
</svg>
