<svg width="1728" height="338" viewBox="0 0 1728 338" fill="none" xmlns="http://www.w3.org/2000/svg">
<g filter="url(#filter0_d_49_24)">
<g clip-path="url(#clip0_49_24)">
<rect width="1728" height="330" fill="url(#paint0_linear_49_24)"/>
<g filter="url(#filter1_f_49_24)">
<path d="M-0.492774 188.403C141.425 215.028 472.993 259.52 663.919 224.491C902.576 180.706 955.599 83.8885 1285.91 79.513C1616.21 75.1374 1741.45 108.192 1876.3 29.5383" stroke="white" stroke-width="0.25"/>
</g>
<g filter="url(#filter2_f_49_24)">
<path d="M11.2151 -119.878C142.439 -59.6288 453.316 63.9506 647.037 76.2734C889.188 91.6768 964.109 10.6098 1285.62 86.4748C1607.12 162.34 1720.6 224.781 1870.5 181.18" stroke="white" stroke-width="0.25"/>
</g>
<g filter="url(#filter3_f_49_24)">
<path d="M1803.15 47.1134C1665.4 90.41 1341.47 173.979 1147.73 161.881C905.561 146.759 841.411 56.9271 512.923 91.8245C184.434 126.722 64.0141 174.421 -79.2217 112.345" stroke="white" stroke-width="0.25"/>
</g>
<rect opacity="0.75" width="1728" height="375" fill="url(#paint1_linear_49_24)"/>
<path d="M660.588 106.864C660.588 108.328 660.252 109.672 659.58 110.896C658.908 112.096 657.876 113.068 656.484 113.812C655.092 114.556 653.364 114.928 651.3 114.928H647.484V124H641.328V98.728H651.3C653.316 98.728 655.02 99.076 656.412 99.772C657.804 100.468 658.848 101.428 659.544 102.652C660.24 103.876 660.588 105.28 660.588 106.864ZM650.832 110.032C652.008 110.032 652.884 109.756 653.46 109.204C654.036 108.652 654.324 107.872 654.324 106.864C654.324 105.856 654.036 105.076 653.46 104.524C652.884 103.972 652.008 103.696 650.832 103.696H647.484V110.032H650.832ZM682.729 113.632C682.729 114.208 682.693 114.808 682.621 115.432H668.689C668.785 116.68 669.181 117.64 669.877 118.312C670.597 118.96 671.473 119.284 672.505 119.284C674.041 119.284 675.109 118.636 675.709 117.34H682.261C681.925 118.66 681.313 119.848 680.425 120.904C679.561 121.96 678.469 122.788 677.149 123.388C675.829 123.988 674.353 124.288 672.721 124.288C670.753 124.288 669.001 123.868 667.465 123.028C665.929 122.188 664.729 120.988 663.865 119.428C663.001 117.868 662.569 116.044 662.569 113.956C662.569 111.868 662.989 110.044 663.829 108.484C664.693 106.924 665.893 105.724 667.429 104.884C668.965 104.044 670.729 103.624 672.721 103.624C674.665 103.624 676.393 104.032 677.905 104.848C679.417 105.664 680.593 106.828 681.433 108.34C682.297 109.852 682.729 111.616 682.729 113.632ZM676.429 112.012C676.429 110.956 676.069 110.116 675.349 109.492C674.629 108.868 673.729 108.556 672.649 108.556C671.617 108.556 670.741 108.856 670.021 109.456C669.325 110.056 668.893 110.908 668.725 112.012H676.429ZM692.132 107.26C692.852 106.156 693.752 105.292 694.832 104.668C695.912 104.02 697.112 103.696 698.432 103.696V110.212H696.74C695.204 110.212 694.052 110.548 693.284 111.22C692.516 111.868 692.132 113.02 692.132 114.676V124H685.976V103.912H692.132V107.26ZM709.547 124.288C707.795 124.288 706.235 123.988 704.867 123.388C703.499 122.788 702.419 121.972 701.627 120.94C700.835 119.884 700.391 118.708 700.295 117.412H706.379C706.451 118.108 706.775 118.672 707.351 119.104C707.927 119.536 708.635 119.752 709.475 119.752C710.243 119.752 710.831 119.608 711.239 119.32C711.671 119.008 711.887 118.612 711.887 118.132C711.887 117.556 711.587 117.136 710.987 116.872C710.387 116.584 709.415 116.272 708.071 115.936C706.631 115.6 705.431 115.252 704.471 114.892C703.511 114.508 702.683 113.92 701.987 113.128C701.291 112.312 700.943 111.22 700.943 109.852C700.943 108.7 701.255 107.656 701.879 106.72C702.527 105.76 703.463 105.004 704.687 104.452C705.935 103.9 707.411 103.624 709.115 103.624C711.635 103.624 713.615 104.248 715.055 105.496C716.519 106.744 717.359 108.4 717.575 110.464H711.887C711.791 109.768 711.479 109.216 710.951 108.808C710.447 108.4 709.775 108.196 708.935 108.196C708.215 108.196 707.663 108.34 707.279 108.628C706.895 108.892 706.703 109.264 706.703 109.744C706.703 110.32 707.003 110.752 707.603 111.04C708.227 111.328 709.187 111.616 710.483 111.904C711.971 112.288 713.183 112.672 714.119 113.056C715.055 113.416 715.871 114.016 716.567 114.856C717.287 115.672 717.659 116.776 717.683 118.168C717.683 119.344 717.347 120.4 716.675 121.336C716.027 122.248 715.079 122.968 713.831 123.496C712.607 124.024 711.179 124.288 709.547 124.288ZM730.593 124.288C728.625 124.288 726.849 123.868 725.265 123.028C723.705 122.188 722.469 120.988 721.557 119.428C720.669 117.868 720.225 116.044 720.225 113.956C720.225 111.892 720.681 110.08 721.593 108.52C722.505 106.936 723.753 105.724 725.337 104.884C726.921 104.044 728.697 103.624 730.665 103.624C732.633 103.624 734.409 104.044 735.993 104.884C737.577 105.724 738.825 106.936 739.737 108.52C740.649 110.08 741.105 111.892 741.105 113.956C741.105 116.02 740.637 117.844 739.701 119.428C738.789 120.988 737.529 122.188 735.921 123.028C734.337 123.868 732.561 124.288 730.593 124.288ZM730.593 118.96C731.769 118.96 732.765 118.528 733.581 117.664C734.421 116.8 734.841 115.564 734.841 113.956C734.841 112.348 734.433 111.112 733.617 110.248C732.825 109.384 731.841 108.952 730.665 108.952C729.465 108.952 728.469 109.384 727.677 110.248C726.885 111.088 726.489 112.324 726.489 113.956C726.489 115.564 726.873 116.8 727.641 117.664C728.433 118.528 729.417 118.96 730.593 118.96ZM756.611 103.696C758.963 103.696 760.835 104.464 762.227 106C763.643 107.512 764.351 109.6 764.351 112.264V124H758.231V113.092C758.231 111.748 757.883 110.704 757.187 109.96C756.491 109.216 755.555 108.844 754.379 108.844C753.203 108.844 752.267 109.216 751.571 109.96C750.875 110.704 750.527 111.748 750.527 113.092V124H744.371V103.912H750.527V106.576C751.151 105.688 751.991 104.992 753.047 104.488C754.103 103.96 755.291 103.696 756.611 103.696ZM767.404 113.92C767.404 111.856 767.788 110.044 768.556 108.484C769.348 106.924 770.416 105.724 771.76 104.884C773.104 104.044 774.604 103.624 776.26 103.624C777.676 103.624 778.912 103.912 779.968 104.488C781.048 105.064 781.876 105.82 782.452 106.756V103.912H788.608V124H782.452V121.156C781.852 122.092 781.012 122.848 779.932 123.424C778.876 124 777.64 124.288 776.224 124.288C774.592 124.288 773.104 123.868 771.76 123.028C770.416 122.164 769.348 120.952 768.556 119.392C767.788 117.808 767.404 115.984 767.404 113.92ZM782.452 113.956C782.452 112.42 782.02 111.208 781.156 110.32C780.316 109.432 779.284 108.988 778.06 108.988C776.836 108.988 775.792 109.432 774.928 110.32C774.088 111.184 773.668 112.384 773.668 113.92C773.668 115.456 774.088 116.68 774.928 117.592C775.792 118.48 776.836 118.924 778.06 118.924C779.284 118.924 780.316 118.48 781.156 117.592C782.02 116.704 782.452 115.492 782.452 113.956ZM799.218 97.36V124H793.062V97.36H799.218ZM806.775 101.824C805.695 101.824 804.807 101.512 804.111 100.888C803.439 100.24 803.103 99.448 803.103 98.512C803.103 97.552 803.439 96.76 804.111 96.136C804.807 95.488 805.695 95.164 806.775 95.164C807.831 95.164 808.695 95.488 809.367 96.136C810.063 96.76 810.411 97.552 810.411 98.512C810.411 99.448 810.063 100.24 809.367 100.888C808.695 101.512 807.831 101.824 806.775 101.824ZM809.835 103.912V124H803.679V103.912H809.835ZM820.056 118.924H828.768V124H813.18V119.104L821.532 108.988H813.252V103.912H828.588V108.808L820.056 118.924ZM851.092 113.632C851.092 114.208 851.056 114.808 850.984 115.432H837.052C837.148 116.68 837.544 117.64 838.24 118.312C838.96 118.96 839.836 119.284 840.868 119.284C842.404 119.284 843.472 118.636 844.072 117.34H850.624C850.288 118.66 849.676 119.848 848.788 120.904C847.924 121.96 846.832 122.788 845.512 123.388C844.192 123.988 842.716 124.288 841.084 124.288C839.116 124.288 837.364 123.868 835.828 123.028C834.292 122.188 833.092 120.988 832.228 119.428C831.364 117.868 830.932 116.044 830.932 113.956C830.932 111.868 831.352 110.044 832.192 108.484C833.056 106.924 834.256 105.724 835.792 104.884C837.328 104.044 839.092 103.624 841.084 103.624C843.028 103.624 844.756 104.032 846.268 104.848C847.78 105.664 848.956 106.828 849.796 108.34C850.66 109.852 851.092 111.616 851.092 113.632ZM844.792 112.012C844.792 110.956 844.432 110.116 843.712 109.492C842.992 108.868 842.092 108.556 841.012 108.556C839.98 108.556 839.104 108.856 838.384 109.456C837.688 110.056 837.256 110.908 837.088 112.012H844.792ZM860.744 113.92C860.744 111.856 861.128 110.044 861.896 108.484C862.688 106.924 863.756 105.724 865.1 104.884C866.444 104.044 867.944 103.624 869.6 103.624C871.016 103.624 872.252 103.912 873.308 104.488C874.388 105.064 875.216 105.82 875.792 106.756V103.912H881.948V124H875.792V121.156C875.192 122.092 874.352 122.848 873.272 123.424C872.216 124 870.98 124.288 869.564 124.288C867.932 124.288 866.444 123.868 865.1 123.028C863.756 122.164 862.688 120.952 861.896 119.392C861.128 117.808 860.744 115.984 860.744 113.92ZM875.792 113.956C875.792 112.42 875.36 111.208 874.496 110.32C873.656 109.432 872.624 108.988 871.4 108.988C870.176 108.988 869.132 109.432 868.268 110.32C867.428 111.184 867.008 112.384 867.008 113.92C867.008 115.456 867.428 116.68 868.268 117.592C869.132 118.48 870.176 118.924 871.4 118.924C872.624 118.924 873.656 118.48 874.496 117.592C875.36 116.704 875.792 115.492 875.792 113.956ZM895.546 124.288C893.578 124.288 891.802 123.868 890.218 123.028C888.658 122.188 887.422 120.988 886.51 119.428C885.622 117.868 885.178 116.044 885.178 113.956C885.178 111.892 885.634 110.08 886.546 108.52C887.458 106.936 888.706 105.724 890.29 104.884C891.874 104.044 893.65 103.624 895.618 103.624C897.586 103.624 899.362 104.044 900.946 104.884C902.53 105.724 903.778 106.936 904.69 108.52C905.602 110.08 906.058 111.892 906.058 113.956C906.058 116.02 905.59 117.844 904.654 119.428C903.742 120.988 902.482 122.188 900.874 123.028C899.29 123.868 897.514 124.288 895.546 124.288ZM895.546 118.96C896.722 118.96 897.718 118.528 898.534 117.664C899.374 116.8 899.794 115.564 899.794 113.956C899.794 112.348 899.386 111.112 898.57 110.248C897.778 109.384 896.794 108.952 895.618 108.952C894.418 108.952 893.422 109.384 892.63 110.248C891.838 111.088 891.442 112.324 891.442 113.956C891.442 115.564 891.826 116.8 892.594 117.664C893.386 118.528 894.37 118.96 895.546 118.96ZM925.125 124.288C923.373 124.288 921.813 123.988 920.445 123.388C919.077 122.788 917.997 121.972 917.205 120.94C916.413 119.884 915.969 118.708 915.873 117.412H921.957C922.029 118.108 922.353 118.672 922.929 119.104C923.505 119.536 924.213 119.752 925.053 119.752C925.821 119.752 926.409 119.608 926.817 119.32C927.249 119.008 927.465 118.612 927.465 118.132C927.465 117.556 927.165 117.136 926.565 116.872C925.965 116.584 924.993 116.272 923.649 115.936C922.209 115.6 921.009 115.252 920.049 114.892C919.089 114.508 918.261 113.92 917.565 113.128C916.869 112.312 916.521 111.22 916.521 109.852C916.521 108.7 916.833 107.656 917.457 106.72C918.105 105.76 919.041 105.004 920.265 104.452C921.513 103.9 922.989 103.624 924.693 103.624C927.213 103.624 929.193 104.248 930.633 105.496C932.097 106.744 932.937 108.4 933.153 110.464H927.465C927.369 109.768 927.057 109.216 926.529 108.808C926.025 108.4 925.353 108.196 924.513 108.196C923.793 108.196 923.241 108.34 922.857 108.628C922.473 108.892 922.281 109.264 922.281 109.744C922.281 110.32 922.581 110.752 923.181 111.04C923.805 111.328 924.765 111.616 926.061 111.904C927.549 112.288 928.761 112.672 929.697 113.056C930.633 113.416 931.449 114.016 932.145 114.856C932.865 115.672 933.237 116.776 933.261 118.168C933.261 119.344 932.925 120.4 932.253 121.336C931.605 122.248 930.657 122.968 929.409 123.496C928.185 124.024 926.757 124.288 925.125 124.288ZM955.963 113.632C955.963 114.208 955.927 114.808 955.855 115.432H941.923C942.019 116.68 942.415 117.64 943.111 118.312C943.831 118.96 944.707 119.284 945.739 119.284C947.275 119.284 948.343 118.636 948.943 117.34H955.495C955.159 118.66 954.547 119.848 953.659 120.904C952.795 121.96 951.703 122.788 950.383 123.388C949.063 123.988 947.587 124.288 945.955 124.288C943.987 124.288 942.235 123.868 940.699 123.028C939.163 122.188 937.963 120.988 937.099 119.428C936.235 117.868 935.803 116.044 935.803 113.956C935.803 111.868 936.223 110.044 937.063 108.484C937.927 106.924 939.127 105.724 940.663 104.884C942.199 104.044 943.963 103.624 945.955 103.624C947.899 103.624 949.627 104.032 951.139 104.848C952.651 105.664 953.827 106.828 954.667 108.34C955.531 109.852 955.963 111.616 955.963 113.632ZM949.663 112.012C949.663 110.956 949.303 110.116 948.583 109.492C947.863 108.868 946.963 108.556 945.883 108.556C944.851 108.556 943.975 108.856 943.255 109.456C942.559 110.056 942.127 110.908 941.959 112.012H949.663ZM979.047 103.912V124H972.891V121.264C972.267 122.152 971.415 122.872 970.335 123.424C969.279 123.952 968.103 124.216 966.807 124.216C965.271 124.216 963.915 123.88 962.739 123.208C961.563 122.512 960.651 121.516 960.003 120.22C959.355 118.924 959.031 117.4 959.031 115.648V103.912H965.151V114.82C965.151 116.164 965.499 117.208 966.195 117.952C966.891 118.696 967.827 119.068 969.003 119.068C970.203 119.068 971.151 118.696 971.847 117.952C972.543 117.208 972.891 116.164 972.891 114.82V103.912H979.047ZM1010.03 113.632C1010.03 114.208 1010 114.808 1009.93 115.432H995.993C996.089 116.68 996.485 117.64 997.181 118.312C997.901 118.96 998.777 119.284 999.809 119.284C1001.35 119.284 1002.41 118.636 1003.01 117.34H1009.57C1009.23 118.66 1008.62 119.848 1007.73 120.904C1006.87 121.96 1005.77 122.788 1004.45 123.388C1003.13 123.988 1001.66 124.288 1000.03 124.288C998.057 124.288 996.305 123.868 994.769 123.028C993.233 122.188 992.033 120.988 991.169 119.428C990.305 117.868 989.873 116.044 989.873 113.956C989.873 111.868 990.293 110.044 991.133 108.484C991.997 106.924 993.197 105.724 994.733 104.884C996.269 104.044 998.033 103.624 1000.03 103.624C1001.97 103.624 1003.7 104.032 1005.21 104.848C1006.72 105.664 1007.9 106.828 1008.74 108.34C1009.6 109.852 1010.03 111.616 1010.03 113.632ZM1003.73 112.012C1003.73 110.956 1003.37 110.116 1002.65 109.492C1001.93 108.868 1001.03 108.556 999.953 108.556C998.921 108.556 998.045 108.856 997.325 109.456C996.629 110.056 996.197 110.908 996.029 112.012H1003.73ZM1021.45 124.288C1019.7 124.288 1018.14 123.988 1016.77 123.388C1015.4 122.788 1014.32 121.972 1013.53 120.94C1012.74 119.884 1012.3 118.708 1012.2 117.412H1018.28C1018.36 118.108 1018.68 118.672 1019.26 119.104C1019.83 119.536 1020.54 119.752 1021.38 119.752C1022.15 119.752 1022.74 119.608 1023.14 119.32C1023.58 119.008 1023.79 118.612 1023.79 118.132C1023.79 117.556 1023.49 117.136 1022.89 116.872C1022.29 116.584 1021.32 116.272 1019.98 115.936C1018.54 115.6 1017.34 115.252 1016.38 114.892C1015.42 114.508 1014.59 113.92 1013.89 113.128C1013.2 112.312 1012.85 111.22 1012.85 109.852C1012.85 108.7 1013.16 107.656 1013.78 106.72C1014.43 105.76 1015.37 105.004 1016.59 104.452C1017.84 103.9 1019.32 103.624 1021.02 103.624C1023.54 103.624 1025.52 104.248 1026.96 105.496C1028.42 106.744 1029.26 108.4 1029.48 110.464H1023.79C1023.7 109.768 1023.38 109.216 1022.86 108.808C1022.35 108.4 1021.68 108.196 1020.84 108.196C1020.12 108.196 1019.57 108.34 1019.18 108.628C1018.8 108.892 1018.61 109.264 1018.61 109.744C1018.61 110.32 1018.91 110.752 1019.51 111.04C1020.13 111.328 1021.09 111.616 1022.39 111.904C1023.88 112.288 1025.09 112.672 1026.02 113.056C1026.96 113.416 1027.78 114.016 1028.47 114.856C1029.19 115.672 1029.56 116.776 1029.59 118.168C1029.59 119.344 1029.25 120.4 1028.58 121.336C1027.93 122.248 1026.98 122.968 1025.74 123.496C1024.51 124.024 1023.08 124.288 1021.45 124.288ZM1044.55 118.78V124H1041.42C1039.19 124 1037.45 123.46 1036.2 122.38C1034.95 121.276 1034.33 119.488 1034.33 117.016V109.024H1031.88V103.912H1034.33V99.016H1040.48V103.912H1044.52V109.024H1040.48V117.088C1040.48 117.688 1040.63 118.12 1040.92 118.384C1041.2 118.648 1041.68 118.78 1042.36 118.78H1044.55ZM1051.08 101.824C1050 101.824 1049.11 101.512 1048.41 100.888C1047.74 100.24 1047.4 99.448 1047.4 98.512C1047.4 97.552 1047.74 96.76 1048.41 96.136C1049.11 95.488 1050 95.164 1051.08 95.164C1052.13 95.164 1053 95.488 1053.67 96.136C1054.36 96.76 1054.71 97.552 1054.71 98.512C1054.71 99.448 1054.36 100.24 1053.67 100.888C1053 101.512 1052.13 101.824 1051.08 101.824ZM1054.14 103.912V124H1047.98V103.912H1054.14ZM1064.75 97.36V124H1058.6V97.36H1064.75ZM1078.36 124.288C1076.39 124.288 1074.61 123.868 1073.03 123.028C1071.47 122.188 1070.23 120.988 1069.32 119.428C1068.43 117.868 1067.99 116.044 1067.99 113.956C1067.99 111.892 1068.45 110.08 1069.36 108.52C1070.27 106.936 1071.52 105.724 1073.1 104.884C1074.69 104.044 1076.46 103.624 1078.43 103.624C1080.4 103.624 1082.17 104.044 1083.76 104.884C1085.34 105.724 1086.59 106.936 1087.5 108.52C1088.41 110.08 1088.87 111.892 1088.87 113.956C1088.87 116.02 1088.4 117.844 1087.47 119.428C1086.55 120.988 1085.29 122.188 1083.69 123.028C1082.1 123.868 1080.33 124.288 1078.36 124.288ZM1078.36 118.96C1079.53 118.96 1080.53 118.528 1081.35 117.664C1082.19 116.8 1082.61 115.564 1082.61 113.956C1082.61 112.348 1082.2 111.112 1081.38 110.248C1080.59 109.384 1079.61 108.952 1078.43 108.952C1077.23 108.952 1076.23 109.384 1075.44 110.248C1074.65 111.088 1074.25 112.324 1074.25 113.956C1074.25 115.564 1074.64 116.8 1075.41 117.664C1076.2 118.528 1077.18 118.96 1078.36 118.96Z" fill="white"/>
<path d="M693.313 148.352V151.616H697.153V153.104H693.313V156.512H697.633V158H691.489V146.864H697.633V148.352H693.313ZM704.328 149.04C705.021 149.04 705.64 149.184 706.184 149.472C706.738 149.76 707.17 150.187 707.48 150.752C707.789 151.317 707.944 152 707.944 152.8V158H706.136V153.072C706.136 152.283 705.938 151.68 705.544 151.264C705.149 150.837 704.61 150.624 703.928 150.624C703.245 150.624 702.701 150.837 702.296 151.264C701.901 151.68 701.704 152.283 701.704 153.072V158H699.88V149.184H701.704V150.192C702.002 149.829 702.381 149.547 702.84 149.344C703.309 149.141 703.805 149.04 704.328 149.04ZM709.662 153.584C709.662 152.677 709.844 151.883 710.206 151.2C710.58 150.507 711.092 149.973 711.742 149.6C712.393 149.227 713.14 149.04 713.982 149.04C715.049 149.04 715.929 149.296 716.622 149.808C717.326 150.309 717.801 151.029 718.046 151.968H716.078C715.918 151.531 715.662 151.189 715.31 150.944C714.958 150.699 714.516 150.576 713.982 150.576C713.236 150.576 712.638 150.843 712.19 151.376C711.753 151.899 711.534 152.635 711.534 153.584C711.534 154.533 711.753 155.275 712.19 155.808C712.638 156.341 713.236 156.608 713.982 156.608C715.038 156.608 715.737 156.144 716.078 155.216H718.046C717.79 156.112 717.31 156.827 716.606 157.36C715.902 157.883 715.028 158.144 713.982 158.144C713.14 158.144 712.393 157.957 711.742 157.584C711.092 157.2 710.58 156.667 710.206 155.984C709.844 155.291 709.662 154.491 709.662 153.584ZM723.688 158.144C722.856 158.144 722.104 157.957 721.432 157.584C720.76 157.2 720.232 156.667 719.848 155.984C719.464 155.291 719.272 154.491 719.272 153.584C719.272 152.688 719.469 151.893 719.864 151.2C720.259 150.507 720.797 149.973 721.48 149.6C722.163 149.227 722.925 149.04 723.768 149.04C724.611 149.04 725.373 149.227 726.056 149.6C726.739 149.973 727.277 150.507 727.672 151.2C728.067 151.893 728.264 152.688 728.264 153.584C728.264 154.48 728.061 155.275 727.656 155.968C727.251 156.661 726.696 157.2 725.992 157.584C725.299 157.957 724.531 158.144 723.688 158.144ZM723.688 156.56C724.157 156.56 724.595 156.448 725 156.224C725.416 156 725.752 155.664 726.008 155.216C726.264 154.768 726.392 154.224 726.392 153.584C726.392 152.944 726.269 152.405 726.024 151.968C725.779 151.52 725.453 151.184 725.048 150.96C724.643 150.736 724.205 150.624 723.736 150.624C723.267 150.624 722.829 150.736 722.424 150.96C722.029 151.184 721.715 151.52 721.48 151.968C721.245 152.405 721.128 152.944 721.128 153.584C721.128 154.533 721.368 155.269 721.848 155.792C722.339 156.304 722.952 156.56 723.688 156.56ZM734.515 149.04C735.209 149.04 735.827 149.184 736.371 149.472C736.926 149.76 737.358 150.187 737.667 150.752C737.977 151.317 738.131 152 738.131 152.8V158H736.323V153.072C736.323 152.283 736.126 151.68 735.731 151.264C735.337 150.837 734.798 150.624 734.115 150.624C733.433 150.624 732.889 150.837 732.483 151.264C732.089 151.68 731.891 152.283 731.891 153.072V158H730.067V149.184H731.891V150.192C732.19 149.829 732.569 149.547 733.027 149.344C733.497 149.141 733.993 149.04 734.515 149.04ZM742.586 150.672V155.552C742.586 155.883 742.66 156.123 742.81 156.272C742.97 156.411 743.236 156.48 743.61 156.48H744.73V158H743.29C742.468 158 741.839 157.808 741.402 157.424C740.964 157.04 740.746 156.416 740.746 155.552V150.672H739.706V149.184H740.746V146.992H742.586V149.184H744.73V150.672H742.586ZM748.235 150.464C748.502 150.016 748.854 149.669 749.291 149.424C749.739 149.168 750.267 149.04 750.875 149.04V150.928H750.411C749.696 150.928 749.152 151.109 748.779 151.472C748.416 151.835 748.235 152.464 748.235 153.36V158H746.411V149.184H748.235V150.464ZM760.632 153.376C760.632 153.707 760.61 154.005 760.568 154.272H753.832C753.885 154.976 754.146 155.541 754.616 155.968C755.085 156.395 755.661 156.608 756.344 156.608C757.325 156.608 758.018 156.197 758.424 155.376H760.392C760.125 156.187 759.64 156.853 758.936 157.376C758.242 157.888 757.378 158.144 756.344 158.144C755.501 158.144 754.744 157.957 754.072 157.584C753.41 157.2 752.888 156.667 752.504 155.984C752.13 155.291 751.944 154.491 751.944 153.584C751.944 152.677 752.125 151.883 752.488 151.2C752.861 150.507 753.378 149.973 754.04 149.6C754.712 149.227 755.48 149.04 756.344 149.04C757.176 149.04 757.917 149.221 758.568 149.584C759.218 149.947 759.725 150.459 760.088 151.12C760.45 151.771 760.632 152.523 760.632 153.376ZM758.728 152.8C758.717 152.128 758.477 151.589 758.008 151.184C757.538 150.779 756.957 150.576 756.264 150.576C755.634 150.576 755.096 150.779 754.648 151.184C754.2 151.579 753.933 152.117 753.848 152.8H758.728ZM774.663 153.376C774.663 153.707 774.641 154.005 774.599 154.272H767.863C767.916 154.976 768.177 155.541 768.647 155.968C769.116 156.395 769.692 156.608 770.375 156.608C771.356 156.608 772.049 156.197 772.455 155.376H774.423C774.156 156.187 773.671 156.853 772.967 157.376C772.273 157.888 771.409 158.144 770.375 158.144C769.532 158.144 768.775 157.957 768.103 157.584C767.441 157.2 766.919 156.667 766.535 155.984C766.161 155.291 765.975 154.491 765.975 153.584C765.975 152.677 766.156 151.883 766.519 151.2C766.892 150.507 767.409 149.973 768.071 149.6C768.743 149.227 769.511 149.04 770.375 149.04C771.207 149.04 771.948 149.221 772.599 149.584C773.249 149.947 773.756 150.459 774.119 151.12C774.481 151.771 774.663 152.523 774.663 153.376ZM772.759 152.8C772.748 152.128 772.508 151.589 772.039 151.184C771.569 150.779 770.988 150.576 770.295 150.576C769.665 150.576 769.127 150.779 768.679 151.184C768.231 151.579 767.964 152.117 767.879 152.8H772.759ZM787.13 149.04C787.823 149.04 788.442 149.184 788.986 149.472C789.54 149.76 789.972 150.187 790.282 150.752C790.602 151.317 790.762 152 790.762 152.8V158H788.954V153.072C788.954 152.283 788.756 151.68 788.362 151.264C787.967 150.837 787.428 150.624 786.746 150.624C786.063 150.624 785.519 150.837 785.114 151.264C784.719 151.68 784.522 152.283 784.522 153.072V158H782.714V153.072C782.714 152.283 782.516 151.68 782.122 151.264C781.727 150.837 781.188 150.624 780.506 150.624C779.823 150.624 779.279 150.837 778.874 151.264C778.479 151.68 778.282 152.283 778.282 153.072V158H776.458V149.184H778.282V150.192C778.58 149.829 778.959 149.547 779.418 149.344C779.876 149.141 780.367 149.04 780.89 149.04C781.594 149.04 782.223 149.189 782.778 149.488C783.332 149.787 783.759 150.219 784.058 150.784C784.324 150.251 784.74 149.829 785.306 149.52C785.871 149.2 786.479 149.04 787.13 149.04ZM801.687 149.04C802.38 149.04 802.999 149.184 803.543 149.472C804.098 149.76 804.53 150.187 804.839 150.752C805.148 151.317 805.303 152 805.303 152.8V158H803.495V153.072C803.495 152.283 803.298 151.68 802.903 151.264C802.508 150.837 801.97 150.624 801.287 150.624C800.604 150.624 800.06 150.837 799.655 151.264C799.26 151.68 799.063 152.283 799.063 153.072V158H797.239V149.184H799.063V150.192C799.362 149.829 799.74 149.547 800.199 149.344C800.668 149.141 801.164 149.04 801.687 149.04ZM811.454 158.144C810.622 158.144 809.87 157.957 809.198 157.584C808.526 157.2 807.998 156.667 807.614 155.984C807.23 155.291 807.038 154.491 807.038 153.584C807.038 152.688 807.235 151.893 807.63 151.2C808.024 150.507 808.563 149.973 809.246 149.6C809.928 149.227 810.691 149.04 811.534 149.04C812.376 149.04 813.139 149.227 813.822 149.6C814.504 149.973 815.043 150.507 815.438 151.2C815.832 151.893 816.03 152.688 816.03 153.584C816.03 154.48 815.827 155.275 815.422 155.968C815.016 156.661 814.462 157.2 813.758 157.584C813.064 157.957 812.296 158.144 811.454 158.144ZM811.454 156.56C811.923 156.56 812.36 156.448 812.766 156.224C813.182 156 813.518 155.664 813.774 155.216C814.03 154.768 814.158 154.224 814.158 153.584C814.158 152.944 814.035 152.405 813.79 151.968C813.544 151.52 813.219 151.184 812.814 150.96C812.408 150.736 811.971 150.624 811.502 150.624C811.032 150.624 810.595 150.736 810.19 150.96C809.795 151.184 809.48 151.52 809.246 151.968C809.011 152.405 808.894 152.944 808.894 153.584C808.894 154.533 809.134 155.269 809.614 155.792C810.104 156.304 810.718 156.56 811.454 156.56ZM821.033 158.144C820.339 158.144 819.715 158.021 819.161 157.776C818.617 157.52 818.185 157.179 817.865 156.752C817.545 156.315 817.374 155.829 817.353 155.296H819.241C819.273 155.669 819.449 155.984 819.769 156.24C820.099 156.485 820.51 156.608 821.001 156.608C821.513 156.608 821.907 156.512 822.185 156.32C822.473 156.117 822.617 155.861 822.617 155.552C822.617 155.221 822.457 154.976 822.137 154.816C821.827 154.656 821.331 154.48 820.649 154.288C819.987 154.107 819.449 153.931 819.033 153.76C818.617 153.589 818.254 153.328 817.945 152.976C817.646 152.624 817.497 152.16 817.497 151.584C817.497 151.115 817.635 150.688 817.913 150.304C818.19 149.909 818.585 149.6 819.097 149.376C819.619 149.152 820.217 149.04 820.889 149.04C821.891 149.04 822.697 149.296 823.305 149.808C823.923 150.309 824.254 150.997 824.297 151.872H822.473C822.441 151.477 822.281 151.163 821.993 150.928C821.705 150.693 821.315 150.576 820.825 150.576C820.345 150.576 819.977 150.667 819.721 150.848C819.465 151.029 819.337 151.269 819.337 151.568C819.337 151.803 819.422 152 819.593 152.16C819.763 152.32 819.971 152.448 820.217 152.544C820.462 152.629 820.825 152.741 821.305 152.88C821.945 153.051 822.467 153.227 822.873 153.408C823.289 153.579 823.646 153.835 823.945 154.176C824.243 154.517 824.398 154.971 824.409 155.536C824.409 156.037 824.27 156.485 823.993 156.88C823.715 157.275 823.321 157.584 822.809 157.808C822.307 158.032 821.715 158.144 821.033 158.144ZM829.58 158.144C828.886 158.144 828.262 158.021 827.708 157.776C827.164 157.52 826.732 157.179 826.412 156.752C826.092 156.315 825.921 155.829 825.9 155.296H827.788C827.82 155.669 827.996 155.984 828.316 156.24C828.646 156.485 829.057 156.608 829.548 156.608C830.06 156.608 830.454 156.512 830.732 156.32C831.02 156.117 831.164 155.861 831.164 155.552C831.164 155.221 831.004 154.976 830.684 154.816C830.374 154.656 829.878 154.48 829.196 154.288C828.534 154.107 827.996 153.931 827.58 153.76C827.164 153.589 826.801 153.328 826.492 152.976C826.193 152.624 826.044 152.16 826.044 151.584C826.044 151.115 826.182 150.688 826.46 150.304C826.737 149.909 827.132 149.6 827.644 149.376C828.166 149.152 828.764 149.04 829.436 149.04C830.438 149.04 831.244 149.296 831.852 149.808C832.47 150.309 832.801 150.997 832.844 151.872H831.02C830.988 151.477 830.828 151.163 830.54 150.928C830.252 150.693 829.862 150.576 829.372 150.576C828.892 150.576 828.524 150.667 828.268 150.848C828.012 151.029 827.884 151.269 827.884 151.568C827.884 151.803 827.969 152 828.14 152.16C828.31 152.32 828.518 152.448 828.764 152.544C829.009 152.629 829.372 152.741 829.852 152.88C830.492 153.051 831.014 153.227 831.42 153.408C831.836 153.579 832.193 153.835 832.492 154.176C832.79 154.517 832.945 154.971 832.956 155.536C832.956 156.037 832.817 156.485 832.54 156.88C832.262 157.275 831.868 157.584 831.356 157.808C830.854 158.032 830.262 158.144 829.58 158.144ZM838.751 158.144C837.919 158.144 837.167 157.957 836.495 157.584C835.823 157.2 835.295 156.667 834.911 155.984C834.527 155.291 834.335 154.491 834.335 153.584C834.335 152.688 834.532 151.893 834.927 151.2C835.321 150.507 835.86 149.973 836.543 149.6C837.225 149.227 837.988 149.04 838.831 149.04C839.673 149.04 840.436 149.227 841.119 149.6C841.801 149.973 842.34 150.507 842.735 151.2C843.129 151.893 843.327 152.688 843.327 153.584C843.327 154.48 843.124 155.275 842.719 155.968C842.313 156.661 841.759 157.2 841.055 157.584C840.361 157.957 839.593 158.144 838.751 158.144ZM838.751 156.56C839.22 156.56 839.657 156.448 840.063 156.224C840.479 156 840.815 155.664 841.071 155.216C841.327 154.768 841.455 154.224 841.455 153.584C841.455 152.944 841.332 152.405 841.087 151.968C840.841 151.52 840.516 151.184 840.111 150.96C839.705 150.736 839.268 150.624 838.799 150.624C838.329 150.624 837.892 150.736 837.487 150.96C837.092 151.184 836.777 151.52 836.543 151.968C836.308 152.405 836.191 152.944 836.191 153.584C836.191 154.533 836.431 155.269 836.911 155.792C837.401 156.304 838.015 156.56 838.751 156.56ZM852.486 158.144C851.793 158.144 851.169 158.021 850.614 157.776C850.07 157.52 849.638 157.179 849.318 156.752C848.998 156.315 848.827 155.829 848.806 155.296H850.694C850.726 155.669 850.902 155.984 851.222 156.24C851.553 156.485 851.963 156.608 852.454 156.608C852.966 156.608 853.361 156.512 853.638 156.32C853.926 156.117 854.07 155.861 854.07 155.552C854.07 155.221 853.91 154.976 853.59 154.816C853.281 154.656 852.785 154.48 852.102 154.288C851.441 154.107 850.902 153.931 850.486 153.76C850.07 153.589 849.707 153.328 849.398 152.976C849.099 152.624 848.95 152.16 848.95 151.584C848.95 151.115 849.089 150.688 849.366 150.304C849.643 149.909 850.038 149.6 850.55 149.376C851.073 149.152 851.67 149.04 852.342 149.04C853.345 149.04 854.15 149.296 854.758 149.808C855.377 150.309 855.707 150.997 855.75 151.872H853.926C853.894 151.477 853.734 151.163 853.446 150.928C853.158 150.693 852.769 150.576 852.278 150.576C851.798 150.576 851.43 150.667 851.174 150.848C850.918 151.029 850.79 151.269 850.79 151.568C850.79 151.803 850.875 152 851.046 152.16C851.217 152.32 851.425 152.448 851.67 152.544C851.915 152.629 852.278 152.741 852.758 152.88C853.398 153.051 853.921 153.227 854.326 153.408C854.742 153.579 855.099 153.835 855.398 154.176C855.697 154.517 855.851 154.971 855.862 155.536C855.862 156.037 855.723 156.485 855.446 156.88C855.169 157.275 854.774 157.584 854.262 157.808C853.761 158.032 853.169 158.144 852.486 158.144ZM858.761 148.016C858.43 148.016 858.153 147.904 857.929 147.68C857.705 147.456 857.593 147.179 857.593 146.848C857.593 146.517 857.705 146.24 857.929 146.016C858.153 145.792 858.43 145.68 858.761 145.68C859.081 145.68 859.353 145.792 859.577 146.016C859.801 146.24 859.913 146.517 859.913 146.848C859.913 147.179 859.801 147.456 859.577 147.68C859.353 147.904 859.081 148.016 858.761 148.016ZM859.657 149.184V158H857.833V149.184H859.657ZM864.18 150.672V155.552C864.18 155.883 864.254 156.123 864.404 156.272C864.564 156.411 864.83 156.48 865.204 156.48H866.324V158H864.884C864.062 158 863.433 157.808 862.996 157.424C862.558 157.04 862.34 156.416 862.34 155.552V150.672H861.3V149.184H862.34V146.992H864.18V149.184H866.324V150.672H864.18ZM876.085 153.376C876.085 153.707 876.063 154.005 876.021 154.272H869.285C869.338 154.976 869.599 155.541 870.069 155.968C870.538 156.395 871.114 156.608 871.797 156.608C872.778 156.608 873.471 156.197 873.877 155.376H875.845C875.578 156.187 875.093 156.853 874.389 157.376C873.695 157.888 872.831 158.144 871.797 158.144C870.954 158.144 870.197 157.957 869.525 157.584C868.863 157.2 868.341 156.667 867.957 155.984C867.583 155.291 867.397 154.491 867.397 153.584C867.397 152.677 867.578 151.883 867.941 151.2C868.314 150.507 868.831 149.973 869.493 149.6C870.165 149.227 870.933 149.04 871.797 149.04C872.629 149.04 873.37 149.221 874.021 149.584C874.671 149.947 875.178 150.459 875.541 151.12C875.903 151.771 876.085 152.523 876.085 153.376ZM874.181 152.8C874.17 152.128 873.93 151.589 873.461 151.184C872.991 150.779 872.41 150.576 871.717 150.576C871.087 150.576 870.549 150.779 870.101 151.184C869.653 151.579 869.386 152.117 869.301 152.8H874.181ZM885.86 158.144C885.028 158.144 884.276 157.957 883.604 157.584C882.932 157.2 882.404 156.667 882.02 155.984C881.636 155.291 881.444 154.491 881.444 153.584C881.444 152.688 881.641 151.893 882.036 151.2C882.431 150.507 882.969 149.973 883.652 149.6C884.335 149.227 885.097 149.04 885.94 149.04C886.783 149.04 887.545 149.227 888.228 149.6C888.911 149.973 889.449 150.507 889.844 151.2C890.239 151.893 890.436 152.688 890.436 153.584C890.436 154.48 890.233 155.275 889.828 155.968C889.423 156.661 888.868 157.2 888.164 157.584C887.471 157.957 886.703 158.144 885.86 158.144ZM885.86 156.56C886.329 156.56 886.767 156.448 887.172 156.224C887.588 156 887.924 155.664 888.18 155.216C888.436 154.768 888.564 154.224 888.564 153.584C888.564 152.944 888.441 152.405 888.196 151.968C887.951 151.52 887.625 151.184 887.22 150.96C886.815 150.736 886.377 150.624 885.908 150.624C885.439 150.624 885.001 150.736 884.596 150.96C884.201 151.184 883.887 151.52 883.652 151.968C883.417 152.405 883.3 152.944 883.3 153.584C883.3 154.533 883.54 155.269 884.02 155.792C884.511 156.304 885.124 156.56 885.86 156.56ZM895.787 153.552C895.787 152.667 895.969 151.883 896.331 151.2C896.705 150.517 897.206 149.989 897.835 149.616C898.475 149.232 899.185 149.04 899.963 149.04C900.646 149.04 901.249 149.179 901.771 149.456C902.305 149.733 902.715 150.069 903.003 150.464V149.184H904.843V162.192H903.003V156.72C902.715 157.115 902.299 157.451 901.755 157.728C901.211 158.005 900.593 158.144 899.899 158.144C899.142 158.144 898.449 157.952 897.819 157.568C897.201 157.173 896.705 156.629 896.331 155.936C895.969 155.232 895.787 154.437 895.787 153.552ZM903.003 153.584C903.003 152.976 902.875 152.448 902.619 152C902.374 151.552 902.049 151.211 901.643 150.976C901.238 150.741 900.801 150.624 900.331 150.624C899.862 150.624 899.425 150.741 899.019 150.976C898.614 151.2 898.283 151.536 898.027 151.984C897.782 152.421 897.659 152.944 897.659 153.552C897.659 154.16 897.782 154.693 898.027 155.152C898.283 155.611 898.614 155.963 899.019 156.208C899.435 156.443 899.873 156.56 900.331 156.56C900.801 156.56 901.238 156.443 901.643 156.208C902.049 155.973 902.374 155.632 902.619 155.184C902.875 154.725 903.003 154.192 903.003 153.584ZM915.223 149.184V158H913.399V156.96C913.111 157.323 912.732 157.611 912.263 157.824C911.804 158.027 911.314 158.128 910.791 158.128C910.098 158.128 909.474 157.984 908.919 157.696C908.375 157.408 907.943 156.981 907.623 156.416C907.314 155.851 907.159 155.168 907.159 154.368V149.184H908.967V154.096C908.967 154.885 909.164 155.493 909.559 155.92C909.954 156.336 910.492 156.544 911.175 156.544C911.858 156.544 912.396 156.336 912.791 155.92C913.196 155.493 913.399 154.885 913.399 154.096V149.184H915.223ZM925.71 153.376C925.71 153.707 925.688 154.005 925.646 154.272H918.91C918.963 154.976 919.224 155.541 919.694 155.968C920.163 156.395 920.739 156.608 921.422 156.608C922.403 156.608 923.096 156.197 923.502 155.376H925.47C925.203 156.187 924.718 156.853 924.014 157.376C923.32 157.888 922.456 158.144 921.422 158.144C920.579 158.144 919.822 157.957 919.15 157.584C918.488 157.2 917.966 156.667 917.582 155.984C917.208 155.291 917.022 154.491 917.022 153.584C917.022 152.677 917.203 151.883 917.566 151.2C917.939 150.507 918.456 149.973 919.118 149.6C919.79 149.227 920.558 149.04 921.422 149.04C922.254 149.04 922.995 149.221 923.646 149.584C924.296 149.947 924.803 150.459 925.166 151.12C925.528 151.771 925.71 152.523 925.71 153.376ZM923.806 152.8C923.795 152.128 923.555 151.589 923.086 151.184C922.616 150.779 922.035 150.576 921.342 150.576C920.712 150.576 920.174 150.779 919.726 151.184C919.278 151.579 919.011 152.117 918.926 152.8H923.806ZM935.069 156.368L937.565 149.184H939.501L936.141 158H933.965L930.621 149.184H932.573L935.069 156.368ZM944.704 158.144C943.872 158.144 943.12 157.957 942.448 157.584C941.776 157.2 941.248 156.667 940.864 155.984C940.48 155.291 940.288 154.491 940.288 153.584C940.288 152.688 940.485 151.893 940.88 151.2C941.274 150.507 941.813 149.973 942.496 149.6C943.178 149.227 943.941 149.04 944.784 149.04C945.626 149.04 946.389 149.227 947.072 149.6C947.754 149.973 948.293 150.507 948.688 151.2C949.082 151.893 949.28 152.688 949.28 153.584C949.28 154.48 949.077 155.275 948.672 155.968C948.266 156.661 947.712 157.2 947.008 157.584C946.314 157.957 945.546 158.144 944.704 158.144ZM944.704 156.56C945.173 156.56 945.61 156.448 946.016 156.224C946.432 156 946.768 155.664 947.024 155.216C947.28 154.768 947.408 154.224 947.408 153.584C947.408 152.944 947.285 152.405 947.04 151.968C946.794 151.52 946.469 151.184 946.064 150.96C945.658 150.736 945.221 150.624 944.752 150.624C944.282 150.624 943.845 150.736 943.44 150.96C943.045 151.184 942.73 151.52 942.496 151.968C942.261 152.405 942.144 152.944 942.144 153.584C942.144 154.533 942.384 155.269 942.864 155.792C943.354 156.304 943.968 156.56 944.704 156.56ZM950.475 153.584C950.475 152.677 950.656 151.883 951.019 151.2C951.392 150.507 951.904 149.973 952.555 149.6C953.205 149.227 953.952 149.04 954.795 149.04C955.861 149.04 956.741 149.296 957.435 149.808C958.139 150.309 958.613 151.029 958.859 151.968H956.891C956.731 151.531 956.475 151.189 956.123 150.944C955.771 150.699 955.328 150.576 954.795 150.576C954.048 150.576 953.451 150.843 953.003 151.376C952.565 151.899 952.347 152.635 952.347 153.584C952.347 154.533 952.565 155.275 953.003 155.808C953.451 156.341 954.048 156.608 954.795 156.608C955.851 156.608 956.549 156.144 956.891 155.216H958.859C958.603 156.112 958.123 156.827 957.419 157.36C956.715 157.883 955.84 158.144 954.795 158.144C953.952 158.144 953.205 157.957 952.555 157.584C951.904 157.2 951.392 156.667 951.019 155.984C950.656 155.291 950.475 154.491 950.475 153.584ZM968.757 153.376C968.757 153.707 968.735 154.005 968.693 154.272H961.957C962.01 154.976 962.271 155.541 962.741 155.968C963.21 156.395 963.786 156.608 964.469 156.608C965.45 156.608 966.143 156.197 966.549 155.376H968.517C968.25 156.187 967.765 156.853 967.061 157.376C966.367 157.888 965.503 158.144 964.469 158.144C963.626 158.144 962.869 157.957 962.197 157.584C961.535 157.2 961.013 156.667 960.629 155.984C960.255 155.291 960.069 154.491 960.069 153.584C960.069 152.677 960.25 151.883 960.613 151.2C960.986 150.507 961.503 149.973 962.165 149.6C962.837 149.227 963.605 149.04 964.469 149.04C965.301 149.04 966.042 149.221 966.693 149.584C967.343 149.947 967.85 150.459 968.213 151.12C968.575 151.771 968.757 152.523 968.757 153.376ZM966.853 152.8C966.842 152.128 966.602 151.589 966.133 151.184C965.663 150.779 965.082 150.576 964.389 150.576C963.759 150.576 963.221 150.779 962.773 151.184C962.325 151.579 962.058 152.117 961.973 152.8H966.853ZM964.421 147.184L962.133 148.56V147.136L964.421 145.808L966.709 147.136V148.56L964.421 147.184ZM976.532 150.48C976.841 150.075 977.262 149.733 977.796 149.456C978.329 149.179 978.932 149.04 979.604 149.04C980.372 149.04 981.07 149.232 981.7 149.616C982.34 149.989 982.841 150.517 983.204 151.2C983.566 151.883 983.748 152.667 983.748 153.552C983.748 154.437 983.566 155.232 983.204 155.936C982.841 156.629 982.34 157.173 981.7 157.568C981.07 157.952 980.372 158.144 979.604 158.144C978.932 158.144 978.334 158.011 977.812 157.744C977.289 157.467 976.862 157.125 976.532 156.72V162.192H974.708V149.184H976.532V150.48ZM981.892 153.552C981.892 152.944 981.764 152.421 981.508 151.984C981.262 151.536 980.932 151.2 980.516 150.976C980.11 150.741 979.673 150.624 979.204 150.624C978.745 150.624 978.308 150.741 977.892 150.976C977.486 151.211 977.156 151.552 976.9 152C976.654 152.448 976.532 152.976 976.532 153.584C976.532 154.192 976.654 154.725 976.9 155.184C977.156 155.632 977.486 155.973 977.892 156.208C978.308 156.443 978.745 156.56 979.204 156.56C979.673 156.56 980.11 156.443 980.516 156.208C980.932 155.963 981.262 155.611 981.508 155.152C981.764 154.693 981.892 154.16 981.892 153.552ZM987.376 150.464C987.642 150.016 987.994 149.669 988.432 149.424C988.88 149.168 989.408 149.04 990.016 149.04V150.928H989.552C988.837 150.928 988.293 151.109 987.92 151.472C987.557 151.835 987.376 152.464 987.376 153.36V158H985.552V149.184H987.376V150.464ZM999.772 153.376C999.772 153.707 999.751 154.005 999.708 154.272H992.972C993.026 154.976 993.287 155.541 993.756 155.968C994.226 156.395 994.802 156.608 995.484 156.608C996.466 156.608 997.159 156.197 997.564 155.376H999.532C999.266 156.187 998.78 156.853 998.076 157.376C997.383 157.888 996.519 158.144 995.484 158.144C994.642 158.144 993.884 157.957 993.212 157.584C992.551 157.2 992.028 156.667 991.644 155.984C991.271 155.291 991.084 154.491 991.084 153.584C991.084 152.677 991.266 151.883 991.628 151.2C992.002 150.507 992.519 149.973 993.18 149.6C993.852 149.227 994.62 149.04 995.484 149.04C996.316 149.04 997.058 149.221 997.708 149.584C998.359 149.947 998.866 150.459 999.228 151.12C999.591 151.771 999.772 152.523 999.772 153.376ZM997.868 152.8C997.858 152.128 997.618 151.589 997.148 151.184C996.679 150.779 996.098 150.576 995.404 150.576C994.775 150.576 994.236 150.779 993.788 151.184C993.34 151.579 993.074 152.117 992.988 152.8H997.868ZM1000.96 153.584C1000.96 152.677 1001.14 151.883 1001.5 151.2C1001.88 150.507 1002.39 149.973 1003.04 149.6C1003.69 149.227 1004.44 149.04 1005.28 149.04C1006.35 149.04 1007.23 149.296 1007.92 149.808C1008.62 150.309 1009.1 151.029 1009.34 151.968H1007.38C1007.22 151.531 1006.96 151.189 1006.61 150.944C1006.26 150.699 1005.81 150.576 1005.28 150.576C1004.53 150.576 1003.94 150.843 1003.49 151.376C1003.05 151.899 1002.83 152.635 1002.83 153.584C1002.83 154.533 1003.05 155.275 1003.49 155.808C1003.94 156.341 1004.53 156.608 1005.28 156.608C1006.34 156.608 1007.03 156.144 1007.38 155.216H1009.34C1009.09 156.112 1008.61 156.827 1007.9 157.36C1007.2 157.883 1006.32 158.144 1005.28 158.144C1004.44 158.144 1003.69 157.957 1003.04 157.584C1002.39 157.2 1001.88 156.667 1001.5 155.984C1001.14 155.291 1000.96 154.491 1000.96 153.584ZM1012.09 148.016C1011.76 148.016 1011.48 147.904 1011.26 147.68C1011.03 147.456 1010.92 147.179 1010.92 146.848C1010.92 146.517 1011.03 146.24 1011.26 146.016C1011.48 145.792 1011.76 145.68 1012.09 145.68C1012.41 145.68 1012.68 145.792 1012.9 146.016C1013.13 146.24 1013.24 146.517 1013.24 146.848C1013.24 147.179 1013.13 147.456 1012.9 147.68C1012.68 147.904 1012.41 148.016 1012.09 148.016ZM1012.98 149.184V158H1011.16V149.184H1012.98ZM1018.58 158.144C1017.89 158.144 1017.26 158.021 1016.71 157.776C1016.16 157.52 1015.73 157.179 1015.41 156.752C1015.09 156.315 1014.92 155.829 1014.9 155.296H1016.79C1016.82 155.669 1017 155.984 1017.32 156.24C1017.65 156.485 1018.06 156.608 1018.55 156.608C1019.06 156.608 1019.45 156.512 1019.73 156.32C1020.02 156.117 1020.16 155.861 1020.16 155.552C1020.16 155.221 1020 154.976 1019.68 154.816C1019.37 154.656 1018.88 154.48 1018.2 154.288C1017.53 154.107 1017 153.931 1016.58 153.76C1016.16 153.589 1015.8 153.328 1015.49 152.976C1015.19 152.624 1015.04 152.16 1015.04 151.584C1015.04 151.115 1015.18 150.688 1015.46 150.304C1015.74 149.909 1016.13 149.6 1016.64 149.376C1017.17 149.152 1017.76 149.04 1018.44 149.04C1019.44 149.04 1020.24 149.296 1020.85 149.808C1021.47 150.309 1021.8 150.997 1021.84 151.872H1020.02C1019.99 151.477 1019.83 151.163 1019.54 150.928C1019.25 150.693 1018.86 150.576 1018.37 150.576C1017.89 150.576 1017.52 150.667 1017.27 150.848C1017.01 151.029 1016.88 151.269 1016.88 151.568C1016.88 151.803 1016.97 152 1017.14 152.16C1017.31 152.32 1017.52 152.448 1017.76 152.544C1018.01 152.629 1018.37 152.741 1018.85 152.88C1019.49 153.051 1020.01 153.227 1020.42 153.408C1020.84 153.579 1021.19 153.835 1021.49 154.176C1021.79 154.517 1021.95 154.971 1021.96 155.536C1021.96 156.037 1021.82 156.485 1021.54 156.88C1021.26 157.275 1020.87 157.584 1020.36 157.808C1019.85 158.032 1019.26 158.144 1018.58 158.144ZM1023.32 153.552C1023.32 152.667 1023.5 151.883 1023.86 151.2C1024.24 150.517 1024.74 149.989 1025.37 149.616C1026.01 149.232 1026.71 149.04 1027.48 149.04C1028.17 149.04 1028.77 149.179 1029.29 149.456C1029.81 149.723 1030.23 150.059 1030.53 150.464V149.184H1032.37V158H1030.53V156.688C1030.23 157.104 1029.8 157.451 1029.27 157.728C1028.74 158.005 1028.13 158.144 1027.45 158.144C1026.69 158.144 1026 157.952 1025.37 157.568C1024.74 157.173 1024.24 156.629 1023.86 155.936C1023.5 155.232 1023.32 154.437 1023.32 153.552ZM1030.53 153.584C1030.53 152.976 1030.41 152.448 1030.15 152C1029.91 151.552 1029.58 151.211 1029.17 150.976C1028.77 150.741 1028.33 150.624 1027.86 150.624C1027.39 150.624 1026.96 150.741 1026.55 150.976C1026.15 151.2 1025.81 151.536 1025.56 151.984C1025.31 152.421 1025.19 152.944 1025.19 153.552C1025.19 154.16 1025.31 154.693 1025.56 155.152C1025.81 155.611 1026.15 155.963 1026.55 156.208C1026.97 156.443 1027.4 156.56 1027.86 156.56C1028.33 156.56 1028.77 156.443 1029.17 156.208C1029.58 155.973 1029.91 155.632 1030.15 155.184C1030.41 154.725 1030.53 154.192 1030.53 153.584ZM1037.06 146.88L1036.85 154.64H1035.33L1035.12 146.88H1037.06ZM1036.15 158.112C1035.82 158.112 1035.54 158 1035.31 157.776C1035.09 157.552 1034.98 157.275 1034.98 156.944C1034.98 156.613 1035.09 156.336 1035.31 156.112C1035.54 155.888 1035.82 155.776 1036.15 155.776C1036.47 155.776 1036.74 155.888 1036.96 156.112C1037.19 156.336 1037.3 156.613 1037.3 156.944C1037.3 157.275 1037.19 157.552 1036.96 157.776C1036.74 158 1036.47 158.112 1036.15 158.112Z" fill="white"/>
</g>
</g>
<defs>
<filter id="filter0_d_49_24" x="-4" y="0" width="1736" height="338" filterUnits="userSpaceOnUse" color-interpolation-filters="sRGB">
<feFlood flood-opacity="0" result="BackgroundImageFix"/>
<feColorMatrix in="SourceAlpha" type="matrix" values="0 0 0 0 0 0 0 0 0 0 0 0 0 0 0 0 0 0 127 0" result="hardAlpha"/>
<feOffset dy="4"/>
<feGaussianBlur stdDeviation="2"/>
<feComposite in2="hardAlpha" operator="out"/>
<feColorMatrix type="matrix" values="0 0 0 0 0 0 0 0 0 0 0 0 0 0 0 0 0 0 0.25 0"/>
<feBlend mode="normal" in2="BackgroundImageFix" result="effect1_dropShadow_49_24"/>
<feBlend mode="normal" in="SourceGraphic" in2="effect1_dropShadow_49_24" result="shape"/>
</filter>
<filter id="filter1_f_49_24" x="-11.5158" y="18.4303" width="1898.87" height="230.094" filterUnits="userSpaceOnUse" color-interpolation-filters="sRGB">
<feFlood flood-opacity="0" result="BackgroundImageFix"/>
<feBlend mode="normal" in="SourceGraphic" in2="BackgroundImageFix" result="shape"/>
<feGaussianBlur stdDeviation="5.5" result="effect1_foregroundBlur_49_24"/>
</filter>
<filter id="filter2_f_49_24" x="3.1629" y="-127.992" width="1875.37" height="331.68" filterUnits="userSpaceOnUse" color-interpolation-filters="sRGB">
<feFlood flood-opacity="0" result="BackgroundImageFix"/>
<feBlend mode="normal" in="SourceGraphic" in2="BackgroundImageFix" result="shape"/>
<feGaussianBlur stdDeviation="4" result="effect1_foregroundBlur_49_24"/>
</filter>
<filter id="filter3_f_49_24" x="-98.2713" y="27.9941" width="1920.46" height="154.196" filterUnits="userSpaceOnUse" color-interpolation-filters="sRGB">
<feFlood flood-opacity="0" result="BackgroundImageFix"/>
<feBlend mode="normal" in="SourceGraphic" in2="BackgroundImageFix" result="shape"/>
<feGaussianBlur stdDeviation="9.5" result="effect1_foregroundBlur_49_24"/>
</filter>
<linearGradient id="paint0_linear_49_24" x1="722" y1="-39.6001" x2="2438.35" y2="1150.44" gradientUnits="userSpaceOnUse">
<stop stop-color="#0149AD"/>
<stop offset="1" stop-color="#40B4FD"/>
</linearGradient>
<linearGradient id="paint1_linear_49_24" x1="658.5" y1="436" x2="1444" y2="735.5" gradientUnits="userSpaceOnUse">
<stop stop-color="#002F52"/>
<stop offset="1" stop-color="#326589"/>
</linearGradient>
<clipPath id="clip0_49_24">
<rect width="1728" height="330" fill="white"/>
</clipPath>
</defs>
</svg>
